<svg width="18" height="22" viewBox="0 0 18 22" fill="none" xmlns="http://www.w3.org/2000/svg">
	<path d="M6.01873 2.66895V0.668945H11.7401V2.66895H6.01873ZM7.92585 13.6689H9.83298V7.66895H7.92585V13.6689ZM8.87942 21.6689C7.70336 21.6689 6.59484 21.4314 5.55387 20.9564C4.5129 20.4814 3.60304 19.8356 2.8243 19.0189C2.04556 18.2023 1.42972 17.2481 0.976776 16.1564C0.523834 15.0648 0.297363 13.9023 0.297363 12.6689C0.297363 11.4356 0.523834 10.2731 0.976776 9.18145C1.42972 8.08978 2.04556 7.13561 2.8243 6.31895C3.60304 5.50228 4.5129 4.85645 5.55387 4.38145C6.59484 3.90645 7.70336 3.66895 8.87942 3.66895C9.86476 3.66895 10.8104 3.83561 11.7163 4.16895C12.6221 4.50228 13.4724 4.98561 14.267 5.61895L15.602 4.21895L16.937 5.61895L15.602 7.01895C16.2059 7.85228 16.6668 8.74395 16.9847 9.69395C17.3025 10.6439 17.4615 11.6356 17.4615 12.6689C17.4615 13.9023 17.235 15.0648 16.7821 16.1564C16.3291 17.2481 15.7133 18.2023 14.9345 19.0189C14.1558 19.8356 13.2459 20.4814 12.205 20.9564C11.164 21.4314 10.0555 21.6689 8.87942 21.6689ZM8.87942 19.6689C10.723 19.6689 12.2963 18.9856 13.5995 17.6189C14.9027 16.2523 15.5543 14.6023 15.5543 12.6689C15.5543 10.7356 14.9027 9.08561 13.5995 7.71895C12.2963 6.35228 10.723 5.66895 8.87942 5.66895C7.03586 5.66895 5.46249 6.35228 4.15929 7.71895C2.85609 9.08561 2.20449 10.7356 2.20449 12.6689C2.20449 14.6023 2.85609 16.2523 4.15929 17.6189C5.46249 18.9856 7.03586 19.6689 8.87942 19.6689Z" fill="url(#paint0_linear_1103_6029)"/>
	<defs>
		<linearGradient id="paint0_linear_1103_6029" x1="16.8245" y1="18.9258" x2="7.96945" y2="-0.304677" gradientUnits="userSpaceOnUse">
			<stop stop-color="#00F0FF"/>
			<stop offset="1" stop-color="#0085FF"/>
		</linearGradient>
	</defs>
</svg>
