<svg xmlns="http://www.w3.org/2000/svg" width="33" height="27" fill="none">
	<path fill="url(#a)"
				d="M31.338 12.678a5.314 5.314 0 0 0-1.422-1.11.715.715 0 0 1-.063-1.213 6.223 6.223 0 0 0 1.025-.941c.774-.962 1.171-2.113 1.171-3.473 0-1.234-.293-2.3-.9-3.18-.585-.878-1.463-1.569-2.614-2.05C27.385.231 26.003 0 24.372 0h-7.866c-.837 0-1.486.23-1.946.69a1.214 1.214 0 0 0-.209.251l-1.653 2.092s-.418.502-.627.586c-.251.126-1.067.126-1.067.126H7.929c-2.469 0-4.414.565-5.816 1.694C.71 6.57 0 8.16 0 10.188c0 1.527.44 2.782 1.318 3.745.69.753 1.61 1.297 2.74 1.652h.021s.021 0 .021.021c-.02 0-.042 0-.042-.02-.92.355-1.673.899-2.259 1.61-.774.962-1.171 2.113-1.171 3.473 0 1.234.292 2.301.9 3.18.585.878 1.464 1.569 2.614 2.05 1.15.481 2.531.711 4.163.711h4.875a2.73 2.73 0 0 0 1.694-.585l3.745-2.992a.656.656 0 0 1 .44-.146h5.647c2.47 0 4.415-.565 5.816-1.695 1.402-1.13 2.113-2.72 2.113-4.749.021-1.548-.418-2.803-1.297-3.766ZM5.795 8.221c.607-.503 1.548-.754 2.866-.754h4.247c.648 0 1.255-.313 1.652-.815l1.653-2.197c.335-.44.837-.69 1.402-.69H23.555c1.256 0 2.177.23 2.783.71.607.482.9 1.172.9 2.114 0 .962-.314 1.673-.9 2.134-.648.46-1.59.69-2.845.69h-4.08c-.439 0-.857.146-1.192.44L14.54 12.95c-.397.334-.92.523-1.443.523H8.64c-1.297 0-2.26-.252-2.866-.754-.607-.502-.9-1.255-.9-2.238 0-.983.314-1.736.92-2.26Zm21.108 10.167c-.607.502-1.548.753-2.866.753h-5a.978.978 0 0 0-.586.188l-3.89 3.054c-.42.314-.921.503-1.444.503H9.184c-1.255 0-2.176-.23-2.782-.712-.607-.481-.9-1.171-.9-2.113 0-.962.314-1.673.9-2.134.606-.48 1.527-.71 2.782-.71h4.121c.418 0 .816-.147 1.13-.42l3.64-3.116c.397-.335.92-.523 1.443-.523h4.498c1.297 0 2.26.25 2.866.753.607.502.9 1.255.9 2.238.042.984-.272 1.737-.879 2.239Z"/>
	<defs>
		<linearGradient id="a" x1="1.962" x2="35.489" y1="14.485" y2="2.057" gradientUnits="userSpaceOnUse">
			<stop stop-color="#FF5794"/>
			<stop offset="1" stop-color="#FC72FF"/>
		</linearGradient>
	</defs>
</svg>
