<svg width="456" height="189" viewBox="0 0 456 189" fill="none" xmlns="http://www.w3.org/2000/svg">
<g clip-path="url(#clip0_5039_828)">
<path d="M6.41916 188.045C4.30204 188.045 2.73128 187.499 1.63857 186.407C0.545865 185.315 -0.000488281 183.677 -0.000488281 181.629V127.707C-0.000488281 125.591 0.545865 124.021 1.63857 122.929C2.73128 121.837 4.37034 121.291 6.41916 121.291H29.1611C33.8051 121.291 37.8345 121.974 41.1126 123.407C44.3907 124.772 46.9176 126.82 48.6249 129.345C50.3323 131.939 51.2201 135.01 51.2201 138.628C51.2201 142.655 50.0591 146.068 47.7371 148.866C45.4151 151.665 42.2053 153.508 38.1759 154.463V153.03C42.8199 153.712 46.5078 155.487 49.103 158.354C51.6982 161.221 52.9958 164.906 52.9958 169.411C52.9958 175.35 51.0152 179.923 46.9859 183.199C42.9565 186.475 37.4247 188.113 30.2538 188.113H6.41916V188.045ZM11.6778 149.549H27.1123C31.2782 149.549 34.4198 148.73 36.4686 147.16C38.5174 145.522 39.5418 143.133 39.5418 139.993C39.5418 136.853 38.5174 134.464 36.4686 132.826C34.4198 131.188 31.2782 130.437 27.1123 130.437H11.6778V149.549ZM11.6778 178.831H28.7513C33.0539 178.831 36.1954 178.011 38.2442 176.305C40.2931 174.599 41.2492 172.142 41.2492 168.797C41.2492 165.384 40.2248 162.859 38.2442 161.221C36.1954 159.582 33.0539 158.763 28.7513 158.763H11.6778V178.831Z" fill="white"/>
<path d="M86.938 189C81.6794 189 77.172 188.044 73.3475 186.065C69.523 184.086 66.6547 181.355 64.6058 177.738C62.557 174.12 61.5326 169.888 61.5326 164.974C61.5326 160.196 62.557 155.964 64.5375 152.347C66.5181 148.729 69.2498 145.931 72.8011 143.883C76.2841 141.835 80.3135 140.812 84.8209 140.812C88.099 140.812 91.0357 141.358 93.6991 142.45C96.2943 143.542 98.548 145.043 100.46 147.091C102.304 149.139 103.738 151.528 104.694 154.463C105.651 157.329 106.197 160.606 106.197 164.155C106.197 165.315 105.787 166.134 105.036 166.749C104.216 167.363 103.124 167.636 101.69 167.636H71.2304V160.81H97.8651L96.3626 162.244C96.3626 159.309 95.9528 156.92 95.065 154.94C94.2455 152.961 92.9479 151.459 91.3771 150.436C89.8064 149.412 87.7575 148.866 85.3672 148.866C82.7038 148.866 80.4501 149.48 78.6061 150.709C76.7622 151.937 75.328 153.712 74.3719 155.896C73.4158 158.148 72.8694 160.81 72.8694 163.882V164.565C72.8694 169.752 74.0987 173.643 76.489 176.168C78.9476 178.693 82.4989 179.99 87.2795 179.99C88.9185 179.99 90.7625 179.786 92.8113 179.376C94.8601 178.966 96.8407 178.284 98.6163 177.26C99.9139 176.509 101.143 176.168 102.099 176.236C103.124 176.304 103.943 176.714 104.49 177.328C105.104 177.943 105.446 178.762 105.582 179.649C105.719 180.536 105.514 181.492 105.036 182.447C104.558 183.403 103.738 184.222 102.646 184.905C100.46 186.27 97.8651 187.294 94.9967 187.976C92.0601 188.659 89.3966 189 86.938 189Z" fill="white"/>
<path d="M123.065 188.045C120.948 188.045 119.378 187.499 118.285 186.407C117.192 185.315 116.646 183.677 116.646 181.629V127.707C116.646 125.591 117.192 124.021 118.285 122.929C119.378 121.837 121.017 121.291 123.065 121.291H145.807C150.451 121.291 154.481 121.974 157.759 123.407C161.037 124.772 163.564 126.82 165.271 129.345C166.979 131.939 167.866 135.01 167.866 138.628C167.866 142.655 166.705 146.068 164.383 148.866C162.061 151.665 158.852 153.508 154.822 154.463V153.03C159.466 153.712 163.154 155.487 165.749 158.354C168.344 161.221 169.642 164.906 169.642 169.411C169.642 175.35 167.661 179.923 163.632 183.199C159.603 186.475 154.071 188.113 146.9 188.113H123.065V188.045ZM128.256 149.549H143.69C147.856 149.549 150.998 148.73 153.047 147.16C155.095 145.522 156.12 143.133 156.12 139.993C156.12 136.853 155.095 134.464 153.047 132.826C150.998 131.188 147.856 130.437 143.69 130.437H128.256V149.549ZM128.256 178.831H145.329C149.632 178.831 152.773 178.011 154.822 176.305C156.871 174.599 157.827 172.142 157.827 168.797C157.827 165.384 156.803 162.859 154.822 161.221C152.773 159.582 149.632 158.763 145.329 158.763H128.256V178.831Z" fill="white"/>
<path d="M196.004 189.001C192.657 189.001 189.652 188.318 187.057 187.09C184.462 185.793 182.345 184.018 180.911 181.834C179.408 179.65 178.657 177.124 178.657 174.326C178.657 170.913 179.545 168.183 181.32 166.203C183.096 164.224 185.964 162.791 189.926 161.903C193.887 161.016 199.282 160.606 205.975 160.606H210.687V167.432H206.043C202.15 167.432 199.009 167.637 196.687 167.978C194.365 168.388 192.657 169.002 191.701 169.889C190.745 170.777 190.199 172.073 190.199 173.712C190.199 175.827 190.95 177.534 192.384 178.831C193.818 180.128 195.867 180.81 198.462 180.81C200.579 180.81 202.423 180.332 203.994 179.309C205.633 178.353 206.862 176.988 207.819 175.281C208.775 173.575 209.253 171.596 209.253 169.411V158.491C209.253 155.351 208.57 153.03 207.136 151.665C205.77 150.3 203.379 149.549 200.101 149.549C198.257 149.549 196.277 149.754 194.16 150.232C192.043 150.641 189.789 151.46 187.467 152.484C186.238 153.03 185.213 153.235 184.257 152.962C183.369 152.689 182.618 152.211 182.14 151.392C181.662 150.573 181.389 149.754 181.389 148.798C181.389 147.843 181.662 146.887 182.14 146C182.618 145.112 183.506 144.43 184.667 143.952C187.604 142.723 190.404 141.904 193.067 141.427C195.731 140.949 198.189 140.676 200.443 140.676C205.019 140.676 208.706 141.358 211.711 142.792C214.648 144.157 216.833 146.273 218.268 149.071C219.702 151.87 220.453 155.487 220.453 159.924V182.653C220.453 184.632 219.975 186.134 219.019 187.158C218.063 188.182 216.697 188.728 214.921 188.728C213.146 188.728 211.78 188.182 210.824 187.158C209.867 186.134 209.321 184.632 209.321 182.653V178.08H210.072C209.663 180.264 208.775 182.175 207.477 183.813C206.18 185.451 204.54 186.68 202.56 187.567C200.784 188.523 198.531 189.001 196.004 189.001Z" fill="white"/>
<path d="M248.454 189C243.195 189 239.234 187.499 236.57 184.495C233.907 181.492 232.609 177.056 232.609 171.254V126.41C232.609 124.431 233.087 122.997 234.112 121.973C235.136 120.949 236.57 120.472 238.483 120.472C240.395 120.472 241.829 120.949 242.922 121.973C243.946 122.997 244.493 124.499 244.493 126.41V170.64C244.493 173.575 245.107 175.691 246.336 177.056C247.566 178.421 249.341 179.172 251.595 179.172C252.073 179.172 252.551 179.172 253.029 179.103C253.439 179.103 253.917 179.035 254.327 178.967C255.215 178.83 255.829 179.103 256.103 179.649C256.444 180.264 256.581 181.492 256.581 183.267C256.581 184.837 256.239 186.065 255.624 186.953C255.01 187.84 253.917 188.386 252.483 188.591C251.868 188.659 251.185 188.727 250.502 188.796C249.819 188.932 249.137 189 248.454 189Z" fill="white"/>
<path d="M278.093 189.001C274.747 189.001 271.742 188.318 269.147 187.09C266.551 185.793 264.434 184.018 263 181.834C261.498 179.65 260.746 177.124 260.746 174.326C260.746 170.913 261.634 168.183 263.41 166.203C265.185 164.224 268.054 162.791 272.015 161.903C275.976 161.016 281.371 160.606 288.064 160.606H292.776V167.432H288.132C284.24 167.432 281.098 167.637 278.776 167.978C276.454 168.388 274.747 169.002 273.791 169.889C272.834 170.777 272.288 172.073 272.288 173.712C272.288 175.827 273.039 177.534 274.473 178.831C275.908 180.128 277.956 180.81 280.552 180.81C282.669 180.81 284.513 180.332 286.083 179.309C287.723 178.353 288.952 176.988 289.908 175.281C290.864 173.575 291.342 171.596 291.342 169.411V158.491C291.342 155.351 290.659 153.03 289.225 151.665C287.859 150.3 285.469 149.549 282.191 149.549C280.347 149.549 278.366 149.754 276.249 150.232C274.132 150.641 271.878 151.46 269.556 152.484C268.327 153.03 267.303 153.235 266.346 152.962C265.459 152.689 264.707 152.211 264.229 151.392C263.751 150.573 263.478 149.754 263.478 148.798C263.478 147.843 263.751 146.887 264.229 146C264.707 145.112 265.595 144.43 266.756 143.952C269.693 142.723 272.493 141.904 275.156 141.427C277.82 140.949 280.278 140.676 282.532 140.676C287.108 140.676 290.796 141.358 293.801 142.792C296.737 144.157 298.923 146.273 300.357 149.071C301.791 151.87 302.542 155.487 302.542 159.924V182.653C302.542 184.632 302.064 186.134 301.108 187.158C300.152 188.182 298.786 188.728 297.011 188.728C295.235 188.728 293.869 188.182 292.913 187.158C291.957 186.134 291.41 184.632 291.41 182.653V178.08H292.162C291.752 180.264 290.864 182.175 289.566 183.813C288.269 185.451 286.63 186.68 284.649 187.567C282.874 188.523 280.62 189.001 278.093 189.001Z" fill="white"/>
<path d="M320.572 188.796C318.66 188.796 317.226 188.25 316.201 187.226C315.177 186.202 314.699 184.701 314.699 182.721V146.887C314.699 144.908 315.177 143.474 316.201 142.45C317.226 141.427 318.66 140.949 320.435 140.949C322.279 140.949 323.714 141.427 324.67 142.45C325.694 143.474 326.172 144.976 326.172 146.887V153.303L325.148 150.914C326.514 147.57 328.699 145.044 331.636 143.269C334.572 141.563 337.919 140.676 341.607 140.676C345.363 140.676 348.368 141.358 350.826 142.792C353.217 144.157 355.061 146.273 356.222 149.071C357.451 151.87 357.997 155.419 357.997 159.719V182.653C357.997 184.632 357.519 186.134 356.495 187.158C355.47 188.182 354.036 188.728 352.124 188.728C350.212 188.728 348.778 188.182 347.685 187.158C346.592 186.134 346.114 184.632 346.114 182.653V160.265C346.114 156.648 345.431 154.054 344.065 152.416C342.699 150.778 340.582 149.959 337.782 149.959C334.299 149.959 331.567 151.051 329.519 153.235C327.47 155.419 326.445 158.286 326.445 161.903V182.653C326.582 186.748 324.533 188.796 320.572 188.796Z" fill="white"/>
<path d="M391.598 189C386.749 189 382.515 187.976 378.895 185.997C375.276 184.017 372.544 181.151 370.564 177.533C368.583 173.847 367.627 169.547 367.627 164.633C367.627 160.879 368.173 157.602 369.266 154.667C370.359 151.732 371.998 149.207 374.047 147.159C376.164 145.112 378.691 143.542 381.627 142.45C384.564 141.358 387.91 140.812 391.598 140.812C393.715 140.812 395.969 141.085 398.359 141.631C400.818 142.177 403.072 143.132 405.257 144.497C406.281 145.112 406.964 145.862 407.238 146.75C407.579 147.637 407.647 148.524 407.442 149.48C407.238 150.367 406.828 151.186 406.281 151.869C405.667 152.551 404.916 152.961 404.028 153.098C403.14 153.234 402.184 153.029 401.091 152.483C399.725 151.664 398.291 151.05 396.857 150.64C395.423 150.231 393.988 150.026 392.691 150.026C390.574 150.026 388.798 150.367 387.159 151.05C385.588 151.732 384.222 152.688 383.13 153.917C382.037 155.145 381.217 156.715 380.603 158.49C380.056 160.333 379.783 162.449 379.783 164.838C379.783 169.547 380.876 173.165 383.13 175.895C385.383 178.557 388.525 179.922 392.691 179.922C393.988 179.922 395.423 179.717 396.789 179.376C398.223 178.966 399.657 178.42 401.091 177.601C402.184 177.055 403.14 176.851 403.959 177.055C404.779 177.26 405.53 177.67 406.077 178.352C406.623 179.035 406.964 179.786 407.101 180.741C407.238 181.628 407.101 182.584 406.759 183.471C406.418 184.359 405.735 185.109 404.847 185.656C402.73 186.952 400.545 187.84 398.223 188.386C395.901 188.727 393.715 189 391.598 189Z" fill="white"/>
<path d="M436.809 189C431.55 189 427.043 188.044 423.218 186.065C419.394 184.086 416.525 181.355 414.477 177.738C412.428 174.12 411.403 169.888 411.403 164.974C411.403 160.196 412.428 155.964 414.408 152.347C416.389 148.729 419.121 145.931 422.672 143.883C426.155 141.835 430.184 140.812 434.692 140.812C437.97 140.812 440.906 141.358 443.57 142.45C446.165 143.542 448.419 145.043 450.331 147.091C452.175 149.139 453.609 151.528 454.565 154.463C455.521 157.329 456.068 160.606 456.068 164.155C456.068 165.315 455.658 166.134 454.907 166.749C454.087 167.363 452.994 167.636 451.56 167.636H421.101V160.81H447.736L446.233 162.244C446.233 159.309 445.824 156.92 444.936 154.94C444.116 152.961 442.819 151.459 441.248 150.436C439.677 149.412 437.628 148.866 435.238 148.866C432.574 148.866 430.321 149.48 428.477 150.709C426.633 151.937 425.199 153.712 424.243 155.896C423.286 158.148 422.74 160.81 422.74 163.882V164.565C422.74 169.752 423.969 173.643 426.36 176.168C428.818 178.693 432.37 179.99 437.15 179.99C438.789 179.99 440.633 179.786 442.682 179.376C444.731 178.966 446.711 178.284 448.487 177.26C449.785 176.509 451.014 176.168 451.97 176.236C452.994 176.304 453.814 176.714 454.36 177.328C454.975 177.943 455.316 178.762 455.453 179.649C455.59 180.536 455.385 181.492 454.907 182.447C454.429 183.403 453.609 184.222 452.516 184.905C450.331 186.27 447.736 187.294 444.867 187.976C441.931 188.659 439.267 189 436.809 189Z" fill="white"/>
<path d="M258.493 41.3629C257.196 39.9296 255.625 38.701 253.849 37.7454C252.347 36.9263 252.21 34.8104 253.644 33.7866C254.874 32.8992 255.966 31.8754 256.991 30.7151C259.518 27.5753 260.815 23.8212 260.815 19.3846C260.815 15.3575 259.859 11.8765 257.879 9.00975C255.966 6.14301 253.098 3.89057 249.342 2.32069C245.586 0.750813 241.078 0 235.751 0H210.073C207.341 0 205.224 0.750812 203.721 2.25244C203.448 2.52546 203.243 2.73023 203.038 3.07151L197.643 9.89707C197.643 9.89707 196.277 11.5352 195.594 11.8082C194.775 12.2178 192.111 12.2178 192.111 12.2178H182.072C174.013 12.2178 167.662 14.0607 163.086 17.7465C158.511 21.4323 156.189 26.6197 156.189 33.2405C156.189 38.2232 157.623 42.3185 160.491 45.4583C162.745 47.9155 165.75 49.6901 169.438 50.8505H169.506C169.506 50.8505 169.574 50.8505 169.574 50.9187C169.506 50.9187 169.438 50.9187 169.438 50.8505C166.433 52.0108 163.974 53.7855 162.062 56.1062C159.535 59.2459 158.237 63 158.237 67.4366C158.237 71.4637 159.194 74.9447 161.174 77.8115C163.086 80.6782 165.955 82.9307 169.711 84.5005C173.467 86.0704 177.974 86.8212 183.301 86.8212H199.214C201.263 86.8212 203.175 86.1387 204.746 84.9101L216.97 75.1495C217.38 74.8082 217.858 74.6717 218.405 74.6717H236.844C244.903 74.6717 251.254 72.8288 255.83 69.143C260.405 65.4572 262.727 60.2698 262.727 53.649C262.796 48.598 261.362 44.5027 258.493 41.3629ZM175.106 26.8245C177.087 25.1863 180.16 24.3673 184.462 24.3673H198.326C200.443 24.3673 202.424 23.3434 203.721 21.7053L209.117 14.5385C210.209 13.1051 211.848 12.286 213.692 12.286C215.809 12.286 217.38 12.286 217.38 12.286H233.088C237.185 12.286 240.19 13.0368 242.171 14.6067C244.151 16.1766 245.108 18.429 245.108 21.5005C245.108 24.6403 244.083 26.961 242.171 28.4626C240.054 29.9642 236.981 30.7151 232.883 30.7151H219.566C218.131 30.7151 216.765 31.1928 215.673 32.1484L203.653 42.2503C202.355 43.3424 200.648 43.9567 198.941 43.9567H184.394C180.16 43.9567 177.018 43.1376 175.038 41.4995C173.057 39.8613 172.101 37.4041 172.101 34.1961C172.101 30.9881 173.126 28.5309 175.106 26.8245ZM244.015 59.9967C242.034 61.6349 238.961 62.454 234.659 62.454H218.336C217.653 62.454 216.97 62.6587 216.424 63.0683L203.721 73.0336C202.355 74.0574 200.716 74.6717 199.009 74.6717H186.17C182.072 74.6717 179.067 73.9209 177.087 72.351C175.106 70.7811 174.15 68.5287 174.15 65.4572C174.15 62.3174 175.174 59.9967 177.087 58.4951C179.067 56.9252 182.072 56.1744 186.17 56.1744H199.624C200.99 56.1744 202.287 55.6966 203.312 54.8093L215.195 44.6392C216.492 43.5471 218.2 42.9328 219.907 42.9328H234.59C238.825 42.9328 241.966 43.7519 243.947 45.39C245.927 47.0282 246.883 49.4854 246.883 52.6934C247.02 55.9014 245.995 58.3586 244.015 59.9967Z" fill="white"/>
</g>
<defs>
<clipPath id="clip0_5039_828">
<rect width="456" height="189" fill="white"/>
</clipPath>
</defs>
</svg>
