<svg width="539" height="527" viewBox="0 0 539 527" fill="none" xmlns="http://www.w3.org/2000/svg">
  <g style="mix-blend-mode:color-dodge" opacity="0.3">
    <g style="mix-blend-mode:multiply">
      <path d="M264.935 524.673C409.451 524.673 526.604 407.742 526.604 263.5C526.604 119.258 409.451 2.32666 264.935 2.32666C120.419 2.32666 3.26611 119.258 3.26611 263.5C3.26611 407.742 120.419 524.673 264.935 524.673Z" stroke="white" stroke-width="0.840214" stroke-miterlimit="10"/>
      <path d="M264.86 502.423C397.065 502.423 504.237 395.454 504.237 263.5C504.237 131.546 397.065 24.5764 264.86 24.5764C132.656 24.5764 25.4834 131.546 25.4834 263.5C25.4834 395.454 132.656 502.423 264.86 502.423Z" stroke="white" stroke-width="0.840214" stroke-miterlimit="10"/>
      <path d="M264.785 480.174C384.678 480.174 481.87 383.166 481.87 263.5C481.87 143.834 384.678 46.8262 264.785 46.8262C144.893 46.8262 47.7004 143.834 47.7004 263.5C47.7004 383.166 144.893 480.174 264.785 480.174Z" stroke="white" stroke-width="0.840214" stroke-miterlimit="10"/>
      <path d="M264.711 457.924C372.292 457.924 459.504 370.877 459.504 263.5C459.504 156.123 372.292 69.0759 264.711 69.0759C157.13 69.0759 69.9177 156.123 69.9177 263.5C69.9177 370.877 157.13 457.924 264.711 457.924Z" stroke="white" stroke-width="0.840214" stroke-miterlimit="10"/>
      <path d="M264.636 435.674C359.905 435.674 437.137 358.589 437.137 263.5C437.137 168.411 359.905 91.3257 264.636 91.3257C169.366 91.3257 92.1348 168.411 92.1348 263.5C92.1348 358.589 169.366 435.674 264.636 435.674Z" stroke="white" stroke-width="0.840214" stroke-miterlimit="10"/>
      <path d="M264.561 413.424C347.519 413.424 414.77 346.301 414.77 263.5C414.77 180.699 347.519 113.575 264.561 113.575C181.603 113.575 114.352 180.699 114.352 263.5C114.352 346.301 181.603 413.424 264.561 413.424Z" stroke="white" stroke-width="0.840214" stroke-miterlimit="10"/>
      <path d="M264.486 391.175C335.133 391.175 392.403 334.013 392.403 263.5C392.403 192.987 335.133 135.825 264.486 135.825C193.84 135.825 136.569 192.987 136.569 263.5C136.569 334.013 193.84 391.175 264.486 391.175Z" stroke="white" stroke-width="0.840214" stroke-miterlimit="10"/>
      <path d="M264.486 368.925C322.822 368.925 370.111 321.725 370.111 263.5C370.111 205.275 322.822 158.075 264.486 158.075C206.151 158.075 158.861 205.275 158.861 263.5C158.861 321.725 206.151 368.925 264.486 368.925Z" stroke="white" stroke-width="0.840214" stroke-miterlimit="10"/>
      <path d="M264.411 346.675C310.435 346.675 347.745 309.436 347.745 263.5C347.745 217.564 310.435 180.325 264.411 180.325C218.388 180.325 181.078 217.564 181.078 263.5C181.078 309.436 218.388 346.675 264.411 346.675Z" stroke="white" stroke-width="0.840214" stroke-miterlimit="10"/>
      <path d="M264.337 324.425C298.049 324.425 325.378 297.148 325.378 263.5C325.378 229.852 298.049 202.574 264.337 202.574C230.625 202.574 203.296 229.852 203.296 263.5C203.296 297.148 230.625 324.425 264.337 324.425Z" stroke="white" stroke-width="0.840214" stroke-miterlimit="10"/>
      <path d="M264.261 302.176C285.662 302.176 303.01 284.86 303.01 263.5C303.01 242.14 285.662 224.824 264.261 224.824C242.861 224.824 225.512 242.14 225.512 263.5C225.512 284.86 242.861 302.176 264.261 302.176Z" stroke="white" stroke-width="0.840214" stroke-miterlimit="10"/>
      <path d="M264.187 279.926C273.276 279.926 280.644 272.572 280.644 263.5C280.644 254.428 273.276 247.074 264.187 247.074C255.098 247.074 247.73 254.428 247.73 263.5C247.73 272.572 255.098 279.926 264.187 279.926Z" stroke="white" stroke-width="0.840214" stroke-miterlimit="10"/>
    </g>
  </g>
  <circle cx="498.936" cy="368.925" r="39.7559" fill="url(#paint0_linear_54_124)"/>
  <defs>
    <linearGradient id="paint0_linear_54_124" x1="532.736" y1="359.335" x2="452.718" y2="386.563" gradientUnits="userSpaceOnUse">
      <stop stop-color="#C3FF19"/>
      <stop offset="1" stop-color="#69FF35"/>
    </linearGradient>
  </defs>
</svg>
