<svg width="587" height="1024" viewBox="0 0 587 1024" fill="none" xmlns="http://www.w3.org/2000/svg">
<g style="mix-blend-mode:color-dodge" opacity="0.3">
<g style="mix-blend-mode:multiply">
<path d="M0.998901 1033.83C321.78 1033.83 581.824 774.234 581.824 454C581.824 133.766 321.78 -125.834 0.998901 -125.834C-319.782 -125.834 -579.827 133.766 -579.827 454C-579.827 774.234 -319.782 1033.83 0.998901 1033.83Z" stroke="white" stroke-width="0.840214" stroke-miterlimit="10"/>
<path d="M0.832947 984.437C294.286 984.437 532.177 746.952 532.177 454C532.177 161.047 294.286 -76.4375 0.832947 -76.4375C-292.62 -76.4375 -530.511 161.047 -530.511 454C-530.511 746.952 -292.62 984.437 0.832947 984.437Z" stroke="white" stroke-width="0.840214" stroke-miterlimit="10"/>
<path d="M0.667053 935.041C266.793 935.041 482.53 719.671 482.53 454C482.53 188.329 266.793 -27.0405 0.667053 -27.0405C-265.458 -27.0405 -481.196 188.329 -481.196 454C-481.196 719.671 -265.458 935.041 0.667053 935.041Z" stroke="white" stroke-width="0.840214" stroke-miterlimit="10"/>
<path d="M0.500946 885.643C239.299 885.643 432.882 692.39 432.882 454C432.882 215.61 239.299 22.3564 0.500946 22.3564C-238.297 22.3564 -431.88 215.61 -431.88 454C-431.88 692.39 -238.297 885.643 0.500946 885.643Z" stroke="white" stroke-width="0.840214" stroke-miterlimit="10"/>
<path d="M0.334961 836.246C211.805 836.246 383.235 665.109 383.235 454C383.235 242.891 211.805 71.7534 0.334961 71.7534C-211.135 71.7534 -382.565 242.891 -382.565 454C-382.565 665.109 -211.135 836.246 0.334961 836.246Z" stroke="white" stroke-width="0.840214" stroke-miterlimit="10"/>
<path d="M0.168701 786.849C184.311 786.849 333.587 637.828 333.587 454C333.587 270.172 184.311 121.15 0.168701 121.15C-183.973 121.15 -333.25 270.172 -333.25 454C-333.25 637.828 -183.973 786.849 0.168701 786.849Z" stroke="white" stroke-width="0.840214" stroke-miterlimit="10"/>
<path d="M0.0027771 737.452C156.817 737.452 283.94 610.546 283.94 454C283.94 297.453 156.817 170.547 0.0027771 170.547C-156.811 170.547 -283.934 297.453 -283.934 454C-283.934 610.546 -156.811 737.452 0.0027771 737.452Z" stroke="white" stroke-width="0.840214" stroke-miterlimit="10"/>
<path d="M0.0030365 688.055C129.489 688.055 234.459 583.265 234.459 454C234.459 324.735 129.489 219.944 0.0030365 219.944C-129.483 219.944 -234.453 324.735 -234.453 454C-234.453 583.265 -129.483 688.055 0.0030365 688.055Z" stroke="white" stroke-width="0.840214" stroke-miterlimit="10"/>
<path d="M-0.162979 638.658C101.995 638.658 184.811 555.984 184.811 454C184.811 352.016 101.995 269.341 -0.162979 269.341C-102.321 269.341 -185.137 352.016 -185.137 454C-185.137 555.984 -102.321 638.658 -0.162979 638.658Z" stroke="white" stroke-width="0.840214" stroke-miterlimit="10"/>
<path d="M-0.32901 589.261C74.5016 589.261 135.164 528.703 135.164 454C135.164 379.297 74.5016 318.738 -0.32901 318.738C-75.1596 318.738 -135.822 379.297 -135.822 454C-135.822 528.703 -75.1596 589.261 -0.32901 589.261Z" stroke="white" stroke-width="0.840214" stroke-miterlimit="10"/>
<path d="M-0.496979 539.865C47.0058 539.865 85.5144 501.422 85.5144 454C85.5144 406.579 47.0058 368.136 -0.496979 368.136C-47.9997 368.136 -86.5083 406.579 -86.5083 454C-86.5083 501.422 -47.9997 539.865 -0.496979 539.865Z" stroke="white" stroke-width="0.840214" stroke-miterlimit="10"/>
<path d="M-0.661007 490.467C19.5139 490.467 35.8689 474.14 35.8689 454C35.8689 433.859 19.5139 417.532 -0.661007 417.532C-20.8359 417.532 -37.1909 433.859 -37.1909 454C-37.1909 474.14 -20.8359 490.467 -0.661007 490.467Z" stroke="white" stroke-width="0.840214" stroke-miterlimit="10"/>
</g>
<circle cx="567.184" cy="123.4" r="2.25" fill="white"/>
<circle cx="135.166" cy="368.135" r="2.25" fill="white"/>
<circle cx="579.574" cy="883.394" r="2.25" fill="white"/>
<circle cx="480.281" cy="587.012" r="2.25" fill="white"/>
<circle cx="173.713" cy="819.292" r="2.25" fill="white"/>
<circle cx="433.25" cy="708.917" r="2.25" fill="white"/>
</g>
</svg>
