<svg width="758" height="450" viewBox="0 0 758 450" fill="none" xmlns="http://www.w3.org/2000/svg">
<g style="mix-blend-mode:color-dodge" opacity="0.3">
<g style="mix-blend-mode:multiply">
<path d="M472.999 938.836C731.649 938.836 941.327 729.603 941.327 471.5C941.327 213.397 731.649 4.16309 472.999 4.16309C214.349 4.16309 4.67139 213.397 4.67139 471.5C4.67139 729.603 214.349 938.836 472.999 938.836Z" stroke="white" stroke-width="0.840214" stroke-miterlimit="10"/>
<path d="M472.865 899.023C709.481 899.023 901.296 707.614 901.296 471.5C901.296 235.385 709.481 43.9761 472.865 43.9761C236.25 43.9761 44.4351 235.385 44.4351 471.5C44.4351 707.614 236.25 899.023 472.865 899.023Z" stroke="white" stroke-width="0.840214" stroke-miterlimit="10"/>
<path d="M472.732 859.21C687.312 859.21 861.264 685.626 861.264 471.499C861.264 257.373 687.312 83.7891 472.732 83.7891C258.151 83.7891 84.1987 257.373 84.1987 471.499C84.1987 685.626 258.151 859.21 472.732 859.21Z" stroke="white" stroke-width="0.840214" stroke-miterlimit="10"/>
<path d="M472.598 819.397C665.143 819.397 821.233 663.638 821.233 471.5C821.233 279.361 665.143 123.603 472.598 123.603C280.052 123.603 123.962 279.361 123.962 471.5C123.962 663.638 280.052 819.397 472.598 819.397Z" stroke="white" stroke-width="0.840214" stroke-miterlimit="10"/>
<path d="M472.464 779.584C642.975 779.584 781.201 641.65 781.201 471.5C781.201 301.349 642.975 163.416 472.464 163.416C301.953 163.416 163.726 301.349 163.726 471.5C163.726 641.65 301.953 779.584 472.464 779.584Z" stroke="white" stroke-width="0.840214" stroke-miterlimit="10"/>
<path d="M472.33 739.771C620.806 739.771 741.17 619.662 741.17 471.5C741.17 323.338 620.806 203.229 472.33 203.229C323.853 203.229 203.49 323.338 203.49 471.5C203.49 619.662 323.853 739.771 472.33 739.771Z" stroke="white" stroke-width="0.840214" stroke-miterlimit="10"/>
<path d="M472.196 699.958C598.637 699.958 701.138 597.674 701.138 471.5C701.138 345.326 598.637 243.042 472.196 243.042C345.754 243.042 243.253 345.326 243.253 471.5C243.253 597.674 345.754 699.958 472.196 699.958Z" stroke="white" stroke-width="0.840214" stroke-miterlimit="10"/>
<path d="M472.196 660.145C576.603 660.145 661.241 575.685 661.241 471.5C661.241 367.314 576.603 282.855 472.196 282.855C367.79 282.855 283.151 367.314 283.151 471.5C283.151 575.685 367.79 660.145 472.196 660.145Z" stroke="white" stroke-width="0.840214" stroke-miterlimit="10"/>
<path d="M472.062 620.331C554.434 620.331 621.21 553.697 621.21 471.5C621.21 389.302 554.434 322.668 472.062 322.668C389.691 322.668 322.915 389.302 322.915 471.5C322.915 553.697 389.691 620.331 472.062 620.331Z" stroke="white" stroke-width="0.840214" stroke-miterlimit="10"/>
<path d="M471.928 580.518C532.265 580.518 581.178 531.709 581.178 471.5C581.178 411.291 532.265 362.481 471.928 362.481C411.591 362.481 362.679 411.291 362.679 471.5C362.679 531.709 411.591 580.518 471.928 580.518Z" stroke="white" stroke-width="0.840214" stroke-miterlimit="10"/>
<path d="M471.793 540.705C510.095 540.705 541.145 509.721 541.145 471.5C541.145 433.279 510.095 402.294 471.793 402.294C433.491 402.294 402.441 433.279 402.441 471.5C402.441 509.721 433.491 540.705 471.793 540.705Z" stroke="white" stroke-width="0.840214" stroke-miterlimit="10"/>
<path d="M471.661 500.892C487.928 500.892 501.115 487.733 501.115 471.5C501.115 455.267 487.928 442.107 471.661 442.107C455.393 442.107 442.206 455.267 442.206 471.5C442.206 487.733 455.393 500.892 471.661 500.892Z" stroke="white" stroke-width="0.840214" stroke-miterlimit="10"/>
</g>
<circle cx="528.281" cy="227.012" r="2.25" fill="white"/>
</g>
</svg>
