<svg width="528" height="257" viewBox="0 0 528 257" fill="none" xmlns="http://www.w3.org/2000/svg">
<g style="mix-blend-mode:color-dodge" opacity="0.3">
<g style="mix-blend-mode:multiply">
<path d="M263.999 254.673C408.515 254.673 525.668 137.742 525.668 -6.50003C525.668 -150.742 408.515 -267.673 263.999 -267.673C119.484 -267.673 2.33057 -150.742 2.33057 -6.50003C2.33057 137.742 119.484 254.673 263.999 254.673Z" stroke="white" stroke-width="0.840214" stroke-miterlimit="10"/>
<path d="M263.925 232.423C396.129 232.423 503.302 125.454 503.302 -6.50031C503.302 -138.454 396.129 -245.424 263.925 -245.424C131.721 -245.424 24.5479 -138.454 24.5479 -6.50031C24.5479 125.454 131.721 232.423 263.925 232.423Z" stroke="white" stroke-width="0.840214" stroke-miterlimit="10"/>
<path d="M263.85 210.174C383.743 210.174 480.935 113.166 480.935 -6.50003C480.935 -126.166 383.743 -223.174 263.85 -223.174C143.957 -223.174 46.7651 -126.166 46.7651 -6.50003C46.7651 113.166 143.957 210.174 263.85 210.174Z" stroke="white" stroke-width="0.840214" stroke-miterlimit="10"/>
<path d="M263.775 187.924C371.356 187.924 458.568 100.878 458.568 -6.49977C458.568 -113.877 371.356 -200.924 263.775 -200.924C156.194 -200.924 68.9819 -113.877 68.9819 -6.49977C68.9819 100.878 156.194 187.924 263.775 187.924Z" stroke="white" stroke-width="0.840214" stroke-miterlimit="10"/>
<path d="M263.7 165.674C358.97 165.674 436.201 88.5892 436.201 -6.50006C436.201 -101.589 358.97 -178.674 263.7 -178.674C168.431 -178.674 91.1992 -101.589 91.1992 -6.50006C91.1992 88.5892 168.431 165.674 263.7 165.674Z" stroke="white" stroke-width="0.840214" stroke-miterlimit="10"/>
<path d="M263.626 143.424C346.584 143.424 413.835 76.3008 413.835 -6.50027C413.835 -89.3013 346.584 -156.425 263.626 -156.425C180.667 -156.425 113.417 -89.3013 113.417 -6.50027C113.417 76.3008 180.667 143.424 263.626 143.424Z" stroke="white" stroke-width="0.840214" stroke-miterlimit="10"/>
<path d="M263.551 121.175C334.197 121.175 391.468 64.0128 391.468 -6.50003C391.468 -77.0129 334.197 -134.175 263.551 -134.175C192.904 -134.175 135.634 -77.0129 135.634 -6.50003C135.634 64.0128 192.904 121.175 263.551 121.175Z" stroke="white" stroke-width="0.840214" stroke-miterlimit="10"/>
<path d="M263.551 98.9252C321.886 98.9252 369.176 51.7248 369.176 -6.4998C369.176 -64.7244 321.886 -111.925 263.551 -111.925C205.216 -111.925 157.926 -64.7244 157.926 -6.4998C157.926 51.7248 205.216 98.9252 263.551 98.9252Z" stroke="white" stroke-width="0.840214" stroke-miterlimit="10"/>
<path d="M263.476 76.6752C309.5 76.6752 346.809 39.4364 346.809 -6.50005C346.809 -52.4365 309.5 -89.6753 263.476 -89.6753C217.453 -89.6753 180.143 -52.4365 180.143 -6.50005C180.143 39.4364 217.453 76.6752 263.476 76.6752Z" stroke="white" stroke-width="0.840214" stroke-miterlimit="10"/>
<path d="M263.401 54.4252C297.114 54.4252 324.443 27.1479 324.443 -6.50029C324.443 -40.1485 297.114 -67.4258 263.401 -67.4258C229.689 -67.4258 202.36 -40.1485 202.36 -6.50029C202.36 27.1479 229.689 54.4252 263.401 54.4252Z" stroke="white" stroke-width="0.840214" stroke-miterlimit="10"/>
<path d="M263.326 32.1757C284.726 32.1757 302.075 14.86 302.075 -6.50004C302.075 -27.8601 284.726 -45.1758 263.326 -45.1758C241.925 -45.1758 224.577 -27.8601 224.577 -6.50004C224.577 14.86 241.925 32.1757 263.326 32.1757Z" stroke="white" stroke-width="0.840214" stroke-miterlimit="10"/>
<path d="M263.252 9.92572C272.341 9.92572 279.709 2.57155 279.709 -6.50027C279.709 -15.5721 272.341 -22.9263 263.252 -22.9263C254.163 -22.9263 246.794 -15.5721 246.794 -6.50027C246.794 2.57155 254.163 9.92572 263.252 9.92572Z" stroke="white" stroke-width="0.840214" stroke-miterlimit="10"/>
</g>
</g>
</svg>
