<svg width="524.177734" height="523.186523" viewBox="0 0 524.178 523.187" fill="none" xmlns="http://www.w3.org/2000/svg" xmlns:xlink="http://www.w3.org/1999/xlink">
	<defs/>
	<g style="mix-blend-mode:multiply">
		<path id="Vector" d="M262.08 522.76C117.57 522.76 0.41 405.83 0.41 261.59C0.41 117.35 117.57 0.41 262.08 0.41C406.6 0.41 523.75 117.35 523.75 261.59C523.75 405.83 406.6 522.76 262.08 522.76Z" stroke="#FFFFFF" stroke-opacity="1.000000" stroke-width="0.840214"/>
		<path id="Vector" d="M262.01 500.51C129.81 500.51 22.63 393.54 22.63 261.59C22.63 129.63 129.81 22.66 262.01 22.66C394.21 22.66 501.39 129.63 501.39 261.59C501.39 393.54 394.21 500.51 262.01 500.51Z" stroke="#FFFFFF" stroke-opacity="1.000000" stroke-width="0.840214"/>
		<path id="Vector" d="M261.93 478.26C142.04 478.26 44.85 381.25 44.85 261.59C44.85 141.92 142.04 44.91 261.93 44.91C381.83 44.91 479.02 141.92 479.02 261.59C479.02 381.25 381.83 478.26 261.93 478.26Z" stroke="#FFFFFF" stroke-opacity="1.000000" stroke-width="0.840214"/>
		<path id="Vector" d="M261.86 456.01C154.28 456.01 67.07 368.97 67.07 261.59C67.07 154.21 154.28 67.16 261.86 67.16C369.44 67.16 456.65 154.21 456.65 261.59C456.65 368.97 369.44 456.01 261.86 456.01Z" stroke="#FFFFFF" stroke-opacity="1.000000" stroke-width="0.840214"/>
		<path id="Vector" d="M261.79 433.76C166.52 433.76 89.28 356.68 89.28 261.59C89.28 166.5 166.52 89.41 261.79 89.41C357.05 89.41 434.29 166.5 434.29 261.59C434.29 356.68 357.05 433.76 261.79 433.76Z" stroke="#FFFFFF" stroke-opacity="1.000000" stroke-width="0.840214"/>
		<path id="Vector" d="M261.71 411.51C178.75 411.51 111.5 344.39 111.5 261.59C111.5 178.79 178.75 111.66 261.71 111.66C344.67 111.66 411.92 178.79 411.92 261.59C411.92 344.39 344.67 411.51 261.71 411.51Z" stroke="#FFFFFF" stroke-opacity="1.000000" stroke-width="0.840214"/>
		<path id="Vector" d="M261.64 389.26C190.99 389.26 133.72 332.1 133.72 261.59C133.72 191.08 190.99 133.91 261.64 133.91C332.28 133.91 389.55 191.08 389.55 261.59C389.55 332.1 332.28 389.26 261.64 389.26Z" stroke="#FFFFFF" stroke-opacity="1.000000" stroke-width="0.840214"/>
		<path id="Vector" d="M261.64 367.01C203.3 367.01 156.01 319.81 156.01 261.59C156.01 203.36 203.3 156.16 261.64 156.16C319.97 156.16 367.26 203.36 367.26 261.59C367.26 319.81 319.97 367.01 261.64 367.01Z" stroke="#FFFFFF" stroke-opacity="1.000000" stroke-width="0.840214"/>
		<path id="Vector" d="M261.56 344.76C215.54 344.76 178.23 307.53 178.23 261.59C178.23 215.65 215.54 178.41 261.56 178.41C307.58 178.41 344.89 215.65 344.89 261.59C344.89 307.53 307.58 344.76 261.56 344.76Z" stroke="#FFFFFF" stroke-opacity="1.000000" stroke-width="0.840214"/>
		<path id="Vector" d="M261.49 322.51C227.77 322.51 200.45 295.24 200.45 261.59C200.45 227.94 227.77 200.66 261.49 200.66C295.2 200.66 322.53 227.94 322.53 261.59C322.53 295.24 295.2 322.51 261.49 322.51Z" stroke="#FFFFFF" stroke-opacity="1.000000" stroke-width="0.840214"/>
		<path id="Vector" d="M261.41 300.26C240.01 300.26 222.66 282.95 222.66 261.59C222.66 240.23 240.01 222.91 261.41 222.91C282.81 222.91 300.16 240.23 300.16 261.59C300.16 282.95 282.81 300.26 261.41 300.26Z" stroke="#FFFFFF" stroke-opacity="1.000000" stroke-width="0.840214"/>
		<path id="Vector" d="M261.34 278.01C252.25 278.01 244.88 270.66 244.88 261.59C244.88 252.52 252.25 245.16 261.34 245.16C270.43 245.16 277.79 252.52 277.79 261.59C277.79 270.66 270.43 278.01 261.34 278.01Z" stroke="#FFFFFF" stroke-opacity="1.000000" stroke-width="0.840214"/>
	</g>
</svg>
