<svg width="937.496094" height="935.513672" viewBox="0 0 937.496 935.514" fill="none" xmlns="http://www.w3.org/2000/svg" xmlns:xlink="http://www.w3.org/1999/xlink">
	<defs/>
	<g style="mix-blend-mode:multiply">
		<path id="Vector" d="M468.74 935.09C210.09 935.09 0.42 725.86 0.42 467.75C0.42 209.65 210.09 0.42 468.74 0.42C727.39 0.42 937.07 209.65 937.07 467.75C937.07 725.86 727.39 935.09 468.74 935.09Z" stroke="#FFFFFF" stroke-opacity="1.000000" stroke-width="0.840214"/>
		<path id="Vector" d="M468.61 895.28C231.99 895.28 40.18 703.87 40.18 467.75C40.18 231.64 231.99 40.23 468.61 40.23C705.23 40.23 897.04 231.64 897.04 467.75C897.04 703.87 705.23 895.28 468.61 895.28Z" stroke="#FFFFFF" stroke-opacity="1.000000" stroke-width="0.840214"/>
		<path id="Vector" d="M468.48 855.46C253.9 855.46 79.94 681.88 79.94 467.75C79.94 253.63 253.9 80.04 468.48 80.04C683.06 80.04 857.01 253.63 857.01 467.75C857.01 681.88 683.06 855.46 468.48 855.46Z" stroke="#FFFFFF" stroke-opacity="1.000000" stroke-width="0.840214"/>
		<path id="Vector" d="M468.34 815.65C275.8 815.65 119.71 659.89 119.71 467.75C119.71 275.61 275.8 119.86 468.34 119.86C660.89 119.86 816.98 275.61 816.98 467.75C816.98 659.89 660.89 815.65 468.34 815.65Z" stroke="#FFFFFF" stroke-opacity="1.000000" stroke-width="0.840214"/>
		<path id="Vector" d="M468.21 775.84C297.7 775.84 159.47 637.9 159.47 467.75C159.47 297.6 297.7 159.67 468.21 159.67C638.72 159.67 776.95 297.6 776.95 467.75C776.95 637.9 638.72 775.84 468.21 775.84Z" stroke="#FFFFFF" stroke-opacity="1.000000" stroke-width="0.840214"/>
		<path id="Vector" d="M468.07 736.02C319.6 736.02 199.23 615.91 199.23 467.75C199.23 319.59 319.6 199.48 468.07 199.48C616.55 199.48 736.91 319.59 736.91 467.75C736.91 615.91 616.55 736.02 468.07 736.02Z" stroke="#FFFFFF" stroke-opacity="1.000000" stroke-width="0.840214"/>
		<path id="Vector" d="M467.94 696.21C341.5 696.21 239 593.93 239 467.75C239 341.58 341.5 239.29 467.94 239.29C594.38 239.29 696.88 341.58 696.88 467.75C696.88 593.93 594.38 696.21 467.94 696.21Z" stroke="#FFFFFF" stroke-opacity="1.000000" stroke-width="0.840214"/>
		<path id="Vector" d="M467.94 656.4C363.53 656.4 278.9 571.94 278.9 467.75C278.9 363.57 363.53 279.11 467.94 279.11C572.35 279.11 656.99 363.57 656.99 467.75C656.99 571.94 572.35 656.4 467.94 656.4Z" stroke="#FFFFFF" stroke-opacity="1.000000" stroke-width="0.840214"/>
		<path id="Vector" d="M467.81 616.58C385.43 616.58 318.66 549.95 318.66 467.75C318.66 385.56 385.43 318.92 467.81 318.92C550.18 318.92 616.95 385.56 616.95 467.75C616.95 549.95 550.18 616.58 467.81 616.58Z" stroke="#FFFFFF" stroke-opacity="1.000000" stroke-width="0.840214"/>
		<path id="Vector" d="M467.67 576.77C407.34 576.77 358.42 527.96 358.42 467.75C358.42 407.54 407.34 358.73 467.67 358.73C528.01 358.73 576.92 407.54 576.92 467.75C576.92 527.96 528.01 576.77 467.67 576.77Z" stroke="#FFFFFF" stroke-opacity="1.000000" stroke-width="0.840214"/>
		<path id="Vector" d="M467.54 536.96C429.24 536.96 398.19 505.97 398.19 467.75C398.19 429.53 429.24 398.55 467.54 398.55C505.84 398.55 536.89 429.53 536.89 467.75C536.89 505.97 505.84 536.96 467.54 536.96Z" stroke="#FFFFFF" stroke-opacity="1.000000" stroke-width="0.840214"/>
		<path id="Vector" d="M467.41 497.14C451.14 497.14 437.95 483.99 437.95 467.75C437.95 451.52 451.14 438.36 467.41 438.36C483.67 438.36 496.86 451.52 496.86 467.75C496.86 483.99 483.67 497.14 467.41 497.14Z" stroke="#FFFFFF" stroke-opacity="1.000000" stroke-width="0.840214"/>
	</g>
</svg>
