<svg width="939" height="1101" viewBox="0 0 939 1101" fill="none" xmlns="http://www.w3.org/2000/svg">
  <path d="M314 214.25C315.243 214.25 316.25 213.243 316.25 212C316.25 210.757 315.243 209.75 314 209.75C312.757 209.75 311.75 210.757 311.75 212C311.75 213.243 312.757 214.25 314 214.25Z" fill="white"/>
  <path d="M197.602 557.25C198.845 557.25 199.852 556.243 199.852 555C199.852 553.757 198.845 552.75 197.602 552.75C196.359 552.75 195.352 553.757 195.352 555C195.352 556.243 196.359 557.25 197.602 557.25Z" fill="white"/>
  <path d="M727.602 320C728.845 320 729.852 318.993 729.852 317.75C729.852 316.507 728.845 315.5 727.602 315.5C726.359 315.5 725.352 316.507 725.352 317.75C725.352 318.993 726.359 320 727.602 320Z" fill="white"/>
  <path d="M431.137 603.107C432.38 603.107 433.387 602.1 433.387 600.857C433.387 599.614 432.38 598.607 431.137 598.607C429.894 598.607 428.887 599.614 428.887 600.857C428.887 602.1 429.894 603.107 431.137 603.107Z" fill="white"/>
  <path d="M723.102 4.9248C724.345 4.9248 725.352 3.91745 725.352 2.6748C725.352 1.43216 724.345 0.424805 723.102 0.424805C721.859 0.424805 720.852 1.43216 720.852 2.6748C720.852 3.91745 721.859 4.9248 723.102 4.9248Z" fill="white"/>
  <g style="mix-blend-mode:color-dodge" opacity="0.3">
    <g style="mix-blend-mode:multiply">
      <path d="M469.36 1099.84C728.011 1099.84 937.688 890.603 937.688 632.5C937.688 374.397 728.011 165.163 469.36 165.163C210.71 165.163 1.03271 374.397 1.03271 632.5C1.03271 890.603 210.71 1099.84 469.36 1099.84Z" stroke="white" stroke-width="0.840214" stroke-miterlimit="10"/>
      <path d="M469.227 1060.02C705.842 1060.02 897.657 868.614 897.657 632.5C897.657 396.385 705.842 204.976 469.227 204.976C232.611 204.976 40.7964 396.385 40.7964 632.5C40.7964 868.614 232.611 1060.02 469.227 1060.02Z" stroke="white" stroke-width="0.840214" stroke-miterlimit="10"/>
      <path d="M469.093 1020.21C683.674 1020.21 857.625 846.626 857.625 632.499C857.625 418.373 683.674 244.789 469.093 244.789C254.512 244.789 80.5601 418.373 80.5601 632.499C80.5601 846.626 254.512 1020.21 469.093 1020.21Z" stroke="white" stroke-width="0.840214" stroke-miterlimit="10"/>
      <path d="M468.959 980.397C661.505 980.397 817.594 824.638 817.594 632.5C817.594 440.361 661.505 284.603 468.959 284.603C276.413 284.603 120.324 440.361 120.324 632.5C120.324 824.638 276.413 980.397 468.959 980.397Z" stroke="white" stroke-width="0.840214" stroke-miterlimit="10"/>
      <path d="M468.825 940.584C639.336 940.584 777.563 802.65 777.563 632.5C777.563 462.349 639.336 324.416 468.825 324.416C298.314 324.416 160.087 462.349 160.087 632.5C160.087 802.65 298.314 940.584 468.825 940.584Z" stroke="white" stroke-width="0.840214" stroke-miterlimit="10"/>
      <path d="M468.691 900.771C617.167 900.771 737.531 780.662 737.531 632.5C737.531 484.338 617.167 364.229 468.691 364.229C320.215 364.229 199.851 484.338 199.851 632.5C199.851 780.662 320.215 900.771 468.691 900.771Z" stroke="white" stroke-width="0.840214" stroke-miterlimit="10"/>
      <path d="M468.557 860.958C594.999 860.958 697.5 758.674 697.5 632.5C697.5 506.326 594.999 404.042 468.557 404.042C342.116 404.042 239.615 506.326 239.615 632.5C239.615 758.674 342.116 860.958 468.557 860.958Z" stroke="white" stroke-width="0.840214" stroke-miterlimit="10"/>
      <path d="M468.558 821.145C572.964 821.145 657.602 736.685 657.602 632.5C657.602 528.314 572.964 443.855 468.558 443.855C364.151 443.855 279.513 528.314 279.513 632.5C279.513 736.685 364.151 821.145 468.558 821.145Z" stroke="white" stroke-width="0.840214" stroke-miterlimit="10"/>
      <path d="M468.424 781.331C550.795 781.331 617.571 714.697 617.571 632.5C617.571 550.302 550.795 483.668 468.424 483.668C386.052 483.668 319.276 550.302 319.276 632.5C319.276 714.697 386.052 781.331 468.424 781.331Z" stroke="white" stroke-width="0.840214" stroke-miterlimit="10"/>
      <path d="M468.29 741.518C528.627 741.518 577.539 692.709 577.539 632.5C577.539 572.291 528.627 523.481 468.29 523.481C407.953 523.481 359.04 572.291 359.04 632.5C359.04 692.709 407.953 741.518 468.29 741.518Z" stroke="white" stroke-width="0.840214" stroke-miterlimit="10"/>
      <path d="M468.154 701.705C506.457 701.705 537.507 670.721 537.507 632.5C537.507 594.279 506.457 563.294 468.154 563.294C429.852 563.294 398.802 594.279 398.802 632.5C398.802 670.721 429.852 701.705 468.154 701.705Z" stroke="white" stroke-width="0.840214" stroke-miterlimit="10"/>
      <path d="M468.022 661.892C484.289 661.892 497.477 648.733 497.477 632.5C497.477 616.267 484.289 603.107 468.022 603.107C451.755 603.107 438.567 616.267 438.567 632.5C438.567 648.733 451.755 661.892 468.022 661.892Z" stroke="white" stroke-width="0.840214" stroke-miterlimit="10"/>
    </g>
  </g>
  <path d="M265.843 226.855C223.318 226.855 188.844 192.381 188.844 149.855C188.844 107.329 223.318 72.855 265.843 72.855C308.369 72.855 342.843 107.329 342.843 149.855C342.843 192.381 308.369 226.855 265.843 226.855Z" fill="url(#paint0_linear_54_106)"/>
  <path d="M184.844 748.949C194.182 748.949 201.751 756.518 201.751 765.856C201.751 775.193 194.182 782.762 184.844 782.762C175.507 782.762 167.938 775.193 167.938 765.856C167.938 756.518 175.507 748.949 184.844 748.949Z" fill="url(#paint1_linear_54_106)"/>
  <circle cx="130.7266" cy="302.562" r="32.2734" fill="url(#paint0_linear_34_3494)"/>
  <defs>
    <linearGradient id="paint0_linear_34_3494" x1="242.6045" y1="266.404" x2="218.9873" y2="203.652" gradientUnits="userSpaceOnUse">
      <stop stop-color="#00F0FF"/>
      <stop offset="1" stop-color="#0085FF"/>
    </linearGradient>
  </defs>
</svg>
