<svg width="1162.491455" height="1160.509277" viewBox="0 0 1162.49 1160.51" fill="none" xmlns="http://www.w3.org/2000/svg" xmlns:xlink="http://www.w3.org/1999/xlink">
	<defs/>
	<g style="mix-blend-mode:multiply">
		<path id="Vector" d="M581.24 1160.09C260.46 1160.09 0.42 900.48 0.42 580.25C0.42 260.02 260.46 0.41 581.24 0.41C902.02 0.41 1162.06 260.02 1162.06 580.25C1162.06 900.48 902.02 1160.09 581.24 1160.09Z" stroke="#FFFFFF" stroke-opacity="1.000000" stroke-width="0.840214"/>
		<path id="Vector" d="M581.08 1110.68C287.62 1110.68 49.73 873.2 49.73 580.25C49.73 287.3 287.62 49.81 581.08 49.81C874.53 49.81 1112.42 287.3 1112.42 580.25C1112.42 873.2 874.53 1110.68 581.08 1110.68Z" stroke="#FFFFFF" stroke-opacity="1.000000" stroke-width="0.840214"/>
		<path id="Vector" d="M580.91 1061.29C314.78 1061.29 99.05 845.92 99.05 580.25C99.05 314.58 314.78 99.21 580.91 99.21C847.03 99.21 1062.78 314.58 1062.78 580.25C1062.78 845.92 847.03 1061.29 580.91 1061.29Z" stroke="#FFFFFF" stroke-opacity="1.000000" stroke-width="0.840214"/>
		<path id="Vector" d="M580.74 1011.9C341.95 1011.9 148.36 818.64 148.36 580.25C148.36 341.86 341.95 148.61 580.74 148.61C819.54 148.61 1013.13 341.86 1013.13 580.25C1013.13 818.64 819.54 1011.9 580.74 1011.9Z" stroke="#FFFFFF" stroke-opacity="1.000000" stroke-width="0.840214"/>
		<path id="Vector" d="M580.58 962.5C369.11 962.5 197.68 791.36 197.68 580.25C197.68 369.14 369.11 198 580.58 198C792.05 198 963.48 369.14 963.48 580.25C963.48 791.36 792.05 962.5 580.58 962.5Z" stroke="#FFFFFF" stroke-opacity="1.000000" stroke-width="0.840214"/>
		<path id="Vector" d="M580.41 913.1C396.27 913.1 246.99 764.08 246.99 580.25C246.99 396.42 396.27 247.4 580.41 247.4C764.55 247.4 913.83 396.42 913.83 580.25C913.83 764.08 764.55 913.1 580.41 913.1Z" stroke="#FFFFFF" stroke-opacity="1.000000" stroke-width="0.840214"/>
		<path id="Vector" d="M580.25 863.7C423.43 863.7 296.31 736.8 296.31 580.25C296.31 423.7 423.43 296.8 580.25 296.8C737.06 296.8 864.18 423.7 864.18 580.25C864.18 736.8 737.06 863.7 580.25 863.7Z" stroke="#FFFFFF" stroke-opacity="1.000000" stroke-width="0.840214"/>
		<path id="Vector" d="M580.25 814.31C450.76 814.31 345.79 709.52 345.79 580.25C345.79 450.98 450.76 346.19 580.25 346.19C709.73 346.19 814.7 450.98 814.7 580.25C814.7 709.52 709.73 814.31 580.25 814.31Z" stroke="#FFFFFF" stroke-opacity="1.000000" stroke-width="0.840214"/>
		<path id="Vector" d="M580.08 764.91C477.92 764.91 395.11 682.23 395.11 580.25C395.11 478.27 477.92 395.59 580.08 395.59C682.24 395.59 765.05 478.27 765.05 580.25C765.05 682.23 682.24 764.91 580.08 764.91Z" stroke="#FFFFFF" stroke-opacity="1.000000" stroke-width="0.840214"/>
		<path id="Vector" d="M579.91 715.51C505.08 715.51 444.42 654.95 444.42 580.25C444.42 505.55 505.08 444.99 579.91 444.99C654.74 444.99 715.41 505.55 715.41 580.25C715.41 654.95 654.74 715.51 579.91 715.51Z" stroke="#FFFFFF" stroke-opacity="1.000000" stroke-width="0.840214"/>
		<path id="Vector" d="M579.75 666.11C532.24 666.11 493.73 627.67 493.73 580.25C493.73 532.83 532.24 494.39 579.75 494.39C627.25 494.39 665.76 532.83 665.76 580.25C665.76 627.67 627.25 666.11 579.75 666.11Z" stroke="#FFFFFF" stroke-opacity="1.000000" stroke-width="0.840214"/>
		<path id="Vector" d="M579.58 616.72C559.41 616.72 543.05 600.39 543.05 580.25C543.05 560.11 559.41 543.78 579.58 543.78C599.76 543.78 616.11 560.11 616.11 580.25C616.11 600.39 599.76 616.72 579.58 616.72Z" stroke="#FFFFFF" stroke-opacity="1.000000" stroke-width="0.840214"/>
	</g>
</svg>
