<svg width="18" height="22" viewBox="0 0 18 22" fill="none" xmlns="http://www.w3.org/2000/svg">
<path d="M6 2.66895V0.668945H12V2.66895H6ZM8 13.6689H10V7.66895H8V13.6689ZM9 21.6689C7.76667 21.6689 6.60417 21.4314 5.5125 20.9564C4.42083 20.4814 3.46667 19.8356 2.65 19.0189C1.83333 18.2023 1.1875 17.2481 0.7125 16.1564C0.2375 15.0648 0 13.9023 0 12.6689C0 11.4356 0.2375 10.2731 0.7125 9.18145C1.1875 8.08978 1.83333 7.13561 2.65 6.31895C3.46667 5.50228 4.42083 4.85645 5.5125 4.38145C6.60417 3.90645 7.76667 3.66895 9 3.66895C10.0333 3.66895 11.025 3.83561 11.975 4.16895C12.925 4.50228 13.8167 4.98561 14.65 5.61895L16.05 4.21895L17.45 5.61895L16.05 7.01895C16.6833 7.85228 17.1667 8.74395 17.5 9.69395C17.8333 10.6439 18 11.6356 18 12.6689C18 13.9023 17.7625 15.0648 17.2875 16.1564C16.8125 17.2481 16.1667 18.2023 15.35 19.0189C14.5333 19.8356 13.5792 20.4814 12.4875 20.9564C11.3958 21.4314 10.2333 21.6689 9 21.6689ZM9 19.6689C10.9333 19.6689 12.5833 18.9856 13.95 17.6189C15.3167 16.2523 16 14.6023 16 12.6689C16 10.7356 15.3167 9.08561 13.95 7.71895C12.5833 6.35228 10.9333 5.66895 9 5.66895C7.06667 5.66895 5.41667 6.35228 4.05 7.71895C2.68333 9.08561 2 10.7356 2 12.6689C2 14.6023 2.68333 16.2523 4.05 17.6189C5.41667 18.9856 7.06667 19.6689 9 19.6689Z" fill="url(#paint0_linear_1094_4058)"/>
<defs>
<linearGradient id="paint0_linear_1094_4058" x1="17.332" y1="18.9258" x2="8.75201" y2="-0.614796" gradientUnits="userSpaceOnUse">
<stop stop-color="#00F0FF"/>
<stop offset="1" stop-color="#0085FF"/>
</linearGradient>
</defs>
</svg>
