<svg width="9" height="8" viewBox="0 0 9 8" fill="none" xmlns="http://www.w3.org/2000/svg">
<path fill-rule="evenodd" clip-rule="evenodd" d="M0.79235 0.469667C1.10253 0.176778 1.60541 0.176778 1.91559 0.469667L4.53096 2.93935L7.14634 0.469667C7.45649 0.176778 7.95941 0.176778 8.26956 0.469667C8.57972 0.762565 8.57972 1.23744 8.26956 1.53033L5.65419 4L8.26956 6.46967C8.57972 6.76255 8.57972 7.23745 8.26956 7.53032C7.95941 7.8232 7.45649 7.8232 7.14634 7.53032L4.53096 5.06065L1.91559 7.53032C1.60541 7.8232 1.10253 7.8232 0.79235 7.53032C0.482181 7.23745 0.482181 6.76255 0.79235 6.46967L3.40774 4L0.79235 1.53033C0.482181 1.23744 0.482181 0.762565 0.79235 0.469667Z" fill="currentColor"/>
</svg>
