<svg width="186" height="27" viewBox="0 0 186 27" fill="none" xmlns="http://www.w3.org/2000/svg">
<path d="M48.2629 23.6013C47.6143 23.6013 47.1332 23.434 46.7985 23.0993C46.4637 22.7645 46.2964 22.2625 46.2964 21.6349V5.10808C46.2964 4.45956 46.4637 3.9784 46.7985 3.64368C47.1332 3.30896 47.6353 3.1416 48.2629 3.1416H55.2292C56.6518 3.1416 57.8861 3.3508 58.8902 3.79012C59.8944 4.20852 60.6684 4.83612 61.1914 5.61016C61.7144 6.40512 61.9864 7.34652 61.9864 8.45528C61.9864 9.68956 61.6307 10.7356 60.9195 11.5933C60.2082 12.451 59.2249 13.0158 57.9907 13.3087V12.8694C59.4132 13.0786 60.5429 13.6225 61.3379 14.5012C62.1328 15.3798 62.5303 16.5095 62.5303 17.8902C62.5303 19.7102 61.9236 21.1119 60.6893 22.116C59.4551 23.1202 57.7605 23.6223 55.5639 23.6223H48.2629V23.6013ZM49.8737 11.8025H54.6016C55.8777 11.8025 56.8401 11.5514 57.4677 11.0703C58.0953 10.5682 58.4091 9.836 58.4091 8.87368C58.4091 7.91136 58.0953 7.17916 57.4677 6.67708C56.8401 6.175 55.8777 5.94488 54.6016 5.94488H49.8737V11.8025ZM49.8737 20.7771H55.1037C56.4217 20.7771 57.384 20.5261 58.0116 20.0031C58.6392 19.4801 58.9321 18.727 58.9321 17.7019C58.9321 16.6559 58.6183 15.8819 58.0116 15.3798C57.384 14.8777 56.4217 14.6267 55.1037 14.6267H49.8737V20.7771Z" fill="black"/>
<path d="M72.9277 23.8935C71.3169 23.8935 69.9362 23.6007 68.7647 22.994C67.5931 22.3873 66.7145 21.5505 66.0869 20.4417C65.4593 19.333 65.1455 18.0359 65.1455 16.5297C65.1455 15.0653 65.4593 13.7683 66.066 12.6595C66.6727 11.5507 67.5095 10.693 68.5973 10.0654C69.6642 9.43782 70.8985 9.12402 72.2792 9.12402C73.2834 9.12402 74.1829 9.29138 74.9988 9.6261C75.7938 9.96082 76.4841 10.4211 77.0699 11.0487C77.6347 11.6763 78.0741 12.4085 78.3669 13.308C78.6598 14.1867 78.8272 15.1908 78.8272 16.2787C78.8272 16.6343 78.7017 16.8853 78.4715 17.0736C78.2205 17.2619 77.8858 17.3456 77.4465 17.3456H68.1161V15.2536H76.2749L75.8147 15.6929C75.8147 14.7933 75.6892 14.0611 75.4172 13.4545C75.1662 12.8478 74.7687 12.3875 74.2875 12.0737C73.8064 11.7599 73.1788 11.5926 72.4466 11.5926C71.6307 11.5926 70.9403 11.7809 70.3755 12.1574C69.8107 12.534 69.3713 13.0779 69.0785 13.7473C68.7856 14.4377 68.6182 15.2536 68.6182 16.195V16.4042C68.6182 17.9941 68.9948 19.1865 69.727 19.9606C70.4801 20.7346 71.5679 21.1321 73.0323 21.1321C73.5344 21.1321 74.0993 21.0693 74.7269 20.9438C75.3545 20.8183 75.9611 20.6091 76.5051 20.2953C76.9025 20.0652 77.2791 19.9606 77.572 19.9815C77.8858 20.0024 78.1368 20.1279 78.3042 20.3162C78.4925 20.5045 78.5971 20.7555 78.6389 21.0275C78.6807 21.2995 78.618 21.5923 78.4715 21.8852C78.3251 22.1781 78.0741 22.4291 77.7393 22.6383C77.0699 23.0567 76.2749 23.3705 75.3963 23.5797C74.4967 23.7889 73.6809 23.8935 72.9277 23.8935Z" fill="black"/>
<path d="M83.9938 23.6013C83.3453 23.6013 82.8641 23.434 82.5294 23.0993C82.1947 22.7645 82.0273 22.2625 82.0273 21.6349V5.10808C82.0273 4.45956 82.1947 3.9784 82.5294 3.64368C82.8641 3.30896 83.3662 3.1416 83.9938 3.1416H90.9602C92.3827 3.1416 93.617 3.3508 94.6212 3.79012C95.6253 4.20852 96.3994 4.83612 96.9224 5.61016C97.4454 6.40512 97.7173 7.34652 97.7173 8.45528C97.7173 9.68956 97.3617 10.7356 96.6504 11.5933C95.9391 12.451 94.9559 13.0158 93.7216 13.3087V12.8694C95.1442 13.0786 96.2738 13.6225 97.0688 14.5012C97.8638 15.3798 98.2612 16.5095 98.2612 17.8902C98.2612 19.7102 97.6546 21.1119 96.4203 22.116C95.186 23.1202 93.4915 23.6223 91.2949 23.6223H83.9938V23.6013ZM85.5837 11.8025H90.3117C91.5878 11.8025 92.5501 11.5514 93.1777 11.0703C93.8053 10.5682 94.1191 9.836 94.1191 8.87368C94.1191 7.91136 93.8053 7.17916 93.1777 6.67708C92.5501 6.175 91.5878 5.94488 90.3117 5.94488H85.5837V11.8025ZM85.5837 20.7771H90.8137C92.1317 20.7771 93.094 20.5261 93.7216 20.0031C94.3492 19.4801 94.6421 18.727 94.6421 17.7019C94.6421 16.6559 94.3283 15.8819 93.7216 15.3798C93.094 14.8777 92.1317 14.6267 90.8137 14.6267H85.5837V20.7771Z" fill="black"/>
<path d="M106.337 23.8934C105.312 23.8934 104.391 23.6842 103.596 23.3076C102.801 22.9101 102.153 22.3662 101.713 21.6968C101.253 21.0273 101.023 20.2533 101.023 19.3956C101.023 18.3496 101.295 17.5128 101.839 16.9061C102.383 16.2994 103.261 15.8601 104.475 15.5881C105.688 15.3162 107.341 15.1907 109.391 15.1907H110.834V17.2827H109.412C108.219 17.2827 107.257 17.3454 106.546 17.45C105.835 17.5755 105.312 17.7638 105.019 18.0358C104.726 18.3077 104.558 18.7052 104.558 19.2073C104.558 19.8558 104.789 20.3788 105.228 20.7763C105.667 21.1738 106.295 21.383 107.09 21.383C107.738 21.383 108.303 21.2365 108.784 20.9227C109.286 20.6299 109.663 20.2115 109.956 19.6885C110.249 19.1655 110.395 18.5588 110.395 17.8893V14.5421C110.395 13.5798 110.186 12.8685 109.747 12.4501C109.328 12.0317 108.596 11.8016 107.592 11.8016C107.027 11.8016 106.42 11.8644 105.772 12.0108C105.123 12.1363 104.433 12.3874 103.722 12.7012C103.345 12.8685 103.031 12.9313 102.738 12.8476C102.466 12.7639 102.236 12.6175 102.09 12.3665C101.943 12.1154 101.86 11.8644 101.86 11.5715C101.86 11.2786 101.943 10.9857 102.09 10.7138C102.236 10.4418 102.508 10.2326 102.864 10.0862C103.763 9.70963 104.621 9.45859 105.437 9.31215C106.253 9.16571 107.006 9.08203 107.696 9.08203C109.098 9.08203 110.228 9.29123 111.148 9.73055C112.048 10.1489 112.717 10.7975 113.157 11.6552C113.596 12.5129 113.826 13.6217 113.826 14.9815V21.9478C113.826 22.5545 113.68 23.0147 113.387 23.3285C113.094 23.6423 112.675 23.8097 112.131 23.8097C111.588 23.8097 111.169 23.6423 110.876 23.3285C110.583 23.0147 110.416 22.5545 110.416 21.9478V20.5462H110.646C110.521 21.2156 110.249 21.8014 109.851 22.3035C109.454 22.8055 108.952 23.1821 108.345 23.4541C107.801 23.7469 107.111 23.8934 106.337 23.8934Z" fill="black"/>
<path d="M122.403 23.8938C120.792 23.8938 119.579 23.4336 118.763 22.5131C117.947 21.5926 117.55 20.2328 117.55 18.4546V4.71017C117.55 4.1035 117.696 3.66418 118.01 3.35038C118.324 3.03658 118.763 2.89014 119.349 2.89014C119.935 2.89014 120.374 3.03658 120.709 3.35038C121.023 3.66418 121.19 4.12442 121.19 4.71017V18.2663C121.19 19.1659 121.378 19.8144 121.755 20.2328C122.131 20.6512 122.675 20.8813 123.366 20.8813C123.512 20.8813 123.658 20.8813 123.805 20.8604C123.93 20.8604 124.077 20.8395 124.202 20.8186C124.474 20.7767 124.663 20.8604 124.746 21.0278C124.851 21.216 124.893 21.5926 124.893 22.1365C124.893 22.6177 124.788 22.9942 124.6 23.2662C124.412 23.5382 124.077 23.7055 123.638 23.7683C123.449 23.7892 123.24 23.8101 123.031 23.831C122.822 23.8729 122.612 23.8938 122.403 23.8938Z" fill="black"/>
<path d="M131.483 23.8934C130.458 23.8934 129.537 23.6842 128.742 23.3076C127.947 22.9101 127.299 22.3662 126.859 21.6968C126.399 21.0273 126.169 20.2533 126.169 19.3956C126.169 18.3496 126.441 17.5128 126.985 16.9061C127.529 16.2994 128.407 15.8601 129.621 15.5881C130.834 15.3162 132.487 15.1907 134.537 15.1907H135.98V17.2827H134.558C133.365 17.2827 132.403 17.3454 131.692 17.45C130.981 17.5755 130.458 17.7638 130.165 18.0358C129.872 18.3077 129.704 18.7052 129.704 19.2073C129.704 19.8558 129.935 20.3788 130.374 20.7763C130.813 21.1738 131.441 21.383 132.236 21.383C132.884 21.383 133.449 21.2365 133.93 20.9227C134.432 20.6299 134.809 20.2115 135.102 19.6885C135.395 19.1655 135.541 18.5588 135.541 17.8893V14.5421C135.541 13.5798 135.332 12.8685 134.893 12.4501C134.474 12.0317 133.742 11.8016 132.738 11.8016C132.173 11.8016 131.566 11.8644 130.918 12.0108C130.269 12.1363 129.579 12.3874 128.868 12.7012C128.491 12.8685 128.177 12.9313 127.884 12.8476C127.612 12.7639 127.382 12.6175 127.236 12.3665C127.089 12.1154 127.006 11.8644 127.006 11.5715C127.006 11.2786 127.089 10.9857 127.236 10.7138C127.382 10.4418 127.654 10.2326 128.01 10.0862C128.909 9.70963 129.767 9.45859 130.583 9.31215C131.399 9.16571 132.152 9.08203 132.842 9.08203C134.244 9.08203 135.374 9.29123 136.294 9.73055C137.194 10.1489 137.863 10.7975 138.303 11.6552C138.742 12.5129 138.972 13.6217 138.972 14.9815V21.9478C138.972 22.5545 138.826 23.0147 138.533 23.3285C138.24 23.6423 137.821 23.8097 137.277 23.8097C136.734 23.8097 136.315 23.6423 136.022 23.3285C135.729 23.0147 135.562 22.5545 135.562 21.9478V20.5462H135.792C135.667 21.2156 135.395 21.8014 134.997 22.3035C134.6 22.8055 134.098 23.1821 133.491 23.4541C132.947 23.7469 132.257 23.8934 131.483 23.8934Z" fill="black"/>
<path d="M144.494 23.8306C143.909 23.8306 143.469 23.6633 143.156 23.3495C142.842 23.0357 142.695 22.5754 142.695 21.9687V10.9857C142.695 10.3791 142.842 9.93975 143.156 9.62595C143.469 9.31215 143.909 9.16571 144.453 9.16571C145.017 9.16571 145.457 9.31215 145.75 9.62595C146.063 9.93975 146.21 10.4 146.21 10.9857V12.9522L145.896 12.22C146.314 11.1949 146.984 10.4209 147.883 9.87699C148.783 9.35399 149.808 9.08203 150.938 9.08203C152.088 9.08203 153.009 9.29123 153.762 9.73055C154.494 10.1489 155.059 10.7975 155.415 11.6552C155.791 12.5129 155.959 13.6007 155.959 14.9187V21.9478C155.959 22.5545 155.812 23.0147 155.498 23.3285C155.185 23.6423 154.745 23.8097 154.159 23.8097C153.574 23.8097 153.134 23.6423 152.8 23.3285C152.465 23.0147 152.319 22.5545 152.319 21.9478V15.0861C152.319 13.9773 152.109 13.1823 151.691 12.6803C151.273 12.1782 150.624 11.9271 149.766 11.9271C148.699 11.9271 147.863 12.2619 147.235 12.9313C146.607 13.6007 146.294 14.4794 146.294 15.5881V21.9478C146.335 23.203 145.708 23.8306 144.494 23.8306Z" fill="black"/>
<path d="M166.252 23.8935C164.766 23.8935 163.469 23.5797 162.36 22.9731C161.252 22.3664 160.415 21.4877 159.808 20.379C159.202 19.2493 158.909 17.9313 158.909 16.4251C158.909 15.2745 159.076 14.2703 159.411 13.3708C159.745 12.4712 160.248 11.6972 160.875 11.0696C161.524 10.442 162.298 9.96082 163.197 9.6261C164.097 9.29138 165.122 9.12402 166.252 9.12402C166.9 9.12402 167.59 9.2077 168.323 9.37506C169.076 9.54242 169.766 9.8353 170.436 10.2537C170.749 10.442 170.959 10.6721 171.042 10.9441C171.147 11.216 171.168 11.488 171.105 11.7809C171.042 12.0528 170.917 12.3039 170.749 12.5131C170.561 12.7223 170.331 12.8478 170.059 12.8896C169.787 12.9315 169.494 12.8687 169.159 12.7013C168.741 12.4503 168.302 12.262 167.862 12.1365C167.423 12.011 166.984 11.9482 166.586 11.9482C165.938 11.9482 165.394 12.0528 164.892 12.262C164.411 12.4712 163.992 12.7641 163.658 13.1407C163.323 13.5172 163.072 13.9984 162.883 14.5423C162.716 15.1071 162.632 15.7557 162.632 16.4879C162.632 17.9313 162.967 19.0401 163.658 19.8769C164.348 20.6928 165.31 21.1112 166.586 21.1112C166.984 21.1112 167.423 21.0484 167.842 20.9438C168.281 20.8183 168.72 20.6509 169.159 20.3999C169.494 20.2325 169.787 20.1698 170.038 20.2325C170.289 20.2953 170.519 20.4208 170.687 20.63C170.854 20.8392 170.959 21.0693 171 21.3622C171.042 21.6342 171 21.927 170.896 22.199C170.791 22.471 170.582 22.7011 170.31 22.8685C169.662 23.2659 168.992 23.5379 168.281 23.7052C167.57 23.8098 166.9 23.8935 166.252 23.8935Z" fill="black"/>
<path d="M180.1 23.8935C178.489 23.8935 177.109 23.6007 175.937 22.994C174.766 22.3873 173.887 21.5505 173.259 20.4417C172.632 19.333 172.318 18.0359 172.318 16.5297C172.318 15.0653 172.632 13.7683 173.238 12.6595C173.845 11.5507 174.682 10.693 175.77 10.0654C176.837 9.43782 178.071 9.12402 179.452 9.12402C180.456 9.12402 181.355 9.29138 182.171 9.6261C182.966 9.96082 183.656 10.4211 184.242 11.0487C184.807 11.6763 185.246 12.4085 185.539 13.308C185.832 14.1867 186 15.1908 186 16.2787C186 16.6343 185.874 16.8853 185.644 17.0736C185.393 17.2619 185.058 17.3456 184.619 17.3456H175.288V15.2536H183.447L182.987 15.6929C182.987 14.7933 182.862 14.0611 182.59 13.4545C182.339 12.8478 181.941 12.3875 181.46 12.0737C180.979 11.7599 180.351 11.5926 179.619 11.5926C178.803 11.5926 178.113 11.7809 177.548 12.1574C176.983 12.534 176.544 13.0779 176.251 13.7473C175.958 14.4377 175.791 15.2536 175.791 16.195V16.4042C175.791 17.9941 176.167 19.1865 176.899 19.9606C177.652 20.7346 178.74 21.1321 180.205 21.1321C180.707 21.1321 181.272 21.0693 181.899 20.9438C182.527 20.8183 183.133 20.6091 183.677 20.2953C184.075 20.0652 184.451 19.9606 184.744 19.9815C185.058 20.0024 185.309 20.1279 185.477 20.3162C185.665 20.5045 185.769 20.7555 185.811 21.0275C185.853 21.2995 185.79 21.5923 185.644 21.8852C185.497 22.1781 185.246 22.4291 184.912 22.6383C184.242 23.0567 183.447 23.3705 182.569 23.5797C181.669 23.7889 180.853 23.8935 180.1 23.8935Z" fill="black"/>
<path d="M31.3381 12.6775C30.9407 12.2382 30.4595 11.8616 29.9156 11.5687C29.4553 11.3177 29.4135 10.6692 29.8528 10.3554C30.2294 10.0834 30.5641 9.76963 30.8779 9.41399C31.6519 8.45167 32.0494 7.30107 32.0494 5.94127C32.0494 4.707 31.7565 3.64008 31.1499 2.76144C30.5641 1.8828 29.6855 1.19244 28.5349 0.711279C27.3843 0.23012 26.0035 0 24.3718 0H16.5059C15.6691 0 15.0205 0.23012 14.5603 0.690359C14.4766 0.774039 14.4139 0.836799 14.3511 0.941399L12.6984 3.0334C12.6984 3.0334 12.28 3.53548 12.0708 3.61916C11.8198 3.74468 11.0039 3.74468 11.0039 3.74468H7.92867C5.46012 3.74468 3.51456 4.30952 2.11292 5.43919C0.711281 6.56887 0 8.15879 0 10.188C0 11.7152 0.43932 12.9704 1.31796 13.9327C2.00832 14.6858 2.9288 15.2297 4.05848 15.5854H4.0794C4.0794 15.5854 4.10032 15.5854 4.10032 15.6063C4.0794 15.6063 4.05848 15.6063 4.05848 15.5854C3.138 15.941 2.38488 16.4849 1.79912 17.1962C1.02508 18.1585 0.627599 19.3091 0.627599 20.6689C0.627599 21.9032 0.92048 22.9701 1.52716 23.8488C2.11292 24.7274 2.99156 25.4178 4.14216 25.8989C5.29276 26.3801 6.67347 26.6102 8.30523 26.6102H13.1796C13.8072 26.6102 14.3929 26.401 14.8741 26.0245L18.6188 23.0329C18.7443 22.9283 18.8907 22.8865 19.0581 22.8865H24.7065C27.1751 22.8865 29.1206 22.3216 30.5223 21.1919C31.9239 20.0623 32.6352 18.4723 32.6352 16.4431C32.6561 14.895 32.2168 13.6398 31.3381 12.6775ZM5.79483 8.22155C6.40151 7.71947 7.34292 7.46843 8.66087 7.46843H12.9076C13.5561 7.46843 14.1628 7.15463 14.5603 6.65255L16.213 4.45596C16.5477 4.01664 17.0498 3.7656 17.6146 3.7656C18.2631 3.7656 18.7443 3.7656 18.7443 3.7656H23.5559C24.8111 3.7656 25.7316 3.99572 26.3383 4.47688C26.9449 4.95803 27.2378 5.64839 27.2378 6.58979C27.2378 7.55211 26.924 8.26339 26.3383 8.72363C25.6897 9.18387 24.7483 9.41399 23.4931 9.41399H19.4137C18.9744 9.41399 18.556 9.56043 18.2213 9.85331L14.5394 12.9495C14.1419 13.2842 13.6189 13.4725 13.0959 13.4725H8.63995C7.34291 13.4725 6.38059 13.2214 5.77391 12.7193C5.16723 12.2173 4.87436 11.4641 4.87436 10.4809C4.87436 9.49767 5.18815 8.74455 5.79483 8.22155ZM26.9031 18.3887C26.2964 18.8907 25.355 19.1418 24.0371 19.1418H19.0372C18.828 19.1418 18.6188 19.2045 18.4514 19.3301L14.5603 22.3844C14.1419 22.6982 13.6398 22.8865 13.1168 22.8865H9.18387C7.92867 22.8865 7.00819 22.6563 6.40151 22.1752C5.79483 21.694 5.50196 21.0037 5.50196 20.0623C5.50196 19.0999 5.81575 18.3887 6.40151 17.9284C7.00819 17.4473 7.92867 17.2171 9.18387 17.2171H13.3051C13.7235 17.2171 14.121 17.0707 14.4348 16.7987L18.0749 13.6817C18.4723 13.3469 18.9953 13.1587 19.5183 13.1587H24.0161C25.3132 13.1587 26.2755 13.4097 26.8822 13.9118C27.4889 14.4139 27.7817 15.167 27.7817 16.1502C27.8236 17.1335 27.5098 17.8866 26.9031 18.3887Z" fill="url(#paint0_linear_3249_816)"/>
<defs>
<linearGradient id="paint0_linear_3249_816" x1="1.96184" y1="14.4848" x2="35.4892" y2="2.05678" gradientUnits="userSpaceOnUse">
<stop stop-color="#FF5794"/>
<stop offset="1" stop-color="#FC72FF"/>
</linearGradient>
</defs>
</svg>
