<svg width="535" height="604" viewBox="0 0 535 604" fill="none" xmlns="http://www.w3.org/2000/svg">
<g clip-path="url(#clip0_134_307)">
<path d="M119 214.25C120.243 214.25 121.25 213.243 121.25 212C121.25 210.757 120.243 209.75 119 209.75C117.757 209.75 116.75 210.757 116.75 212C116.75 213.243 117.757 214.25 119 214.25Z" fill="white"/>
<path d="M2.60156 557.25C3.8442 557.25 4.85156 556.243 4.85156 555C4.85156 553.757 3.8442 552.75 2.60156 552.75C1.35892 552.75 0.351562 553.757 0.351562 555C0.351562 556.243 1.35892 557.25 2.60156 557.25Z" fill="white"/>
<path d="M532.602 320C533.845 320 534.852 318.993 534.852 317.75C534.852 316.507 533.845 315.5 532.602 315.5C531.359 315.5 530.352 316.507 530.352 317.75C530.352 318.993 531.359 320 532.602 320Z" fill="white"/>
<path d="M236.137 603.107C237.38 603.107 238.387 602.1 238.387 600.857C238.387 599.614 237.38 598.607 236.137 598.607C234.894 598.607 233.887 599.614 233.887 600.857C233.887 602.1 234.894 603.107 236.137 603.107Z" fill="white"/>
<path d="M528.102 4.9248C529.345 4.9248 530.352 3.91745 530.352 2.6748C530.352 1.43216 529.345 0.424805 528.102 0.424805C526.859 0.424805 525.852 1.43216 525.852 2.6748C525.852 3.91745 526.859 4.9248 528.102 4.9248Z" fill="white"/>
</g>
<defs>
<clipPath id="clip0_134_307">
<rect width="535" height="604" fill="white"/>
</clipPath>
</defs>
</svg>
