<svg width="18" height="17" viewBox="0 0 18 17" fill="none" xmlns="http://www.w3.org/2000/svg">
<g clip-path="url(#clip0_622_61)">
<path d="M7.425 3.27222C7.94125 3.16714 8.4698 3.11462 9 3.1157C14.25 3.1157 17.25 8.33309 17.25 8.33309C16.7947 9.0737 16.2518 9.77096 15.63 10.4135M10.59 9.7157C10.384 9.90793 10.1356 10.0621 9.85961 10.169C9.58362 10.276 9.28568 10.3335 8.98357 10.3381C8.68146 10.3427 8.38137 10.2944 8.10121 10.196C7.82104 10.0976 7.56654 9.95115 7.35288 9.76536C7.13923 9.57958 6.97079 9.35827 6.85763 9.11465C6.74447 8.87103 6.68889 8.61008 6.69423 8.34738C6.69956 8.08468 6.76568 7.8256 6.88866 7.5856C7.01163 7.3456 7.18894 7.1296 7.41 6.95048M0.75 1.15918L17.25 15.507M13.455 12.207C12.1729 13.0568 10.6118 13.5276 9 13.5505C3.75 13.5505 0.75 8.33309 0.75 8.33309C1.68292 6.82128 2.97685 5.50044 4.545 4.45918L13.455 12.207Z" stroke="#B0B0B2" stroke-width="1.63636" stroke-linecap="round" stroke-linejoin="round"/>
</g>
<defs>
<clipPath id="clip0_622_61">
<rect width="18" height="15.6522" fill="white" transform="translate(0 0.506836)"/>
</clipPath>
</defs>
</svg>
