<svg width="222" height="207" viewBox="0 0 222 207" fill="none" xmlns="http://www.w3.org/2000/svg">
<g clip-path="url(#clip0_34_3007)">
<path d="M53.7739 63.4966C52.7803 62.5046 52.7782 60.8912 53.7965 59.9246C69.3435 45.1688 87.8417 37.5105 109.264 36.9497C110.67 36.9129 111.811 38.0604 111.805 39.4677L111.492 115.003C111.483 117.26 108.754 118.385 107.157 116.791L53.7739 63.4966Z" fill="url(#paint0_linear_34_3007)" stroke="white" stroke-width="2.54071" stroke-linejoin="round"/>
<path d="M107.444 117.204C109.044 118.805 107.911 121.541 105.647 121.541H55.799C54.3958 121.541 53.2529 120.402 53.3062 119C53.8469 104.76 58.9671 92.4335 68.6421 81.9969C69.5961 80.9679 71.2098 80.9704 72.202 81.9626L107.444 117.204Z" fill="url(#paint1_linear_34_3007)" stroke="white" stroke-width="2.54071" stroke-linejoin="round"/>
<path d="M105.647 121.542C107.911 121.542 109.044 124.278 107.444 125.879L35.2351 198.087C34.2429 199.08 32.6313 199.08 31.659 198.069C11.8044 177.41 1.57803 152.729 1.00903 124.083C0.981162 122.68 2.1214 121.542 3.5246 121.542H105.647Z" fill="url(#paint2_linear_34_3007)" stroke="white" stroke-width="2.54071" stroke-linejoin="round"/>
<path d="M107.444 125.875C109.045 124.275 111.781 125.409 111.781 127.672V187.555C111.781 188.958 110.641 190.1 109.238 190.055C92.251 189.505 77.535 183.409 65.1166 171.767C64.0926 170.807 64.0946 169.193 65.0874 168.201L107.444 125.875Z" fill="url(#paint3_linear_34_3007)" stroke="white" stroke-width="2.54071" stroke-linejoin="round"/>
<path d="M111.781 127.675C111.781 125.412 114.517 124.278 116.118 125.879L169.825 179.586C170.818 180.579 170.819 182.191 169.801 183.157C154.252 197.916 135.749 205.575 114.322 206.134C112.92 206.17 111.781 205.029 111.781 203.626V127.675Z" fill="url(#paint4_linear_34_3007)" stroke="white" stroke-width="2.54071" stroke-linejoin="round"/>
<path d="M116.118 125.879C114.517 124.278 115.651 121.542 117.914 121.542H206.534C207.938 121.542 209.078 122.679 209.046 124.082C208.482 149.014 199.575 170.503 182.354 188.522C181.384 189.536 179.773 189.534 178.781 188.542L116.118 125.879Z" fill="url(#paint5_linear_34_3007)" stroke="white" stroke-width="2.54071" stroke-linejoin="round"/>
<path d="M117.914 121.541C115.651 121.541 114.517 118.805 116.118 117.204L187.216 46.1061C188.208 45.1139 189.819 45.1128 190.791 46.1248C210.335 66.4713 220.421 90.7726 220.99 119C221.018 120.402 219.878 121.541 218.475 121.541H117.914Z" fill="url(#paint6_linear_34_3007)" stroke="white" stroke-width="2.54071" stroke-linejoin="round"/>
<path d="M115.91 117.204C114.309 118.805 111.572 117.671 111.572 115.408V2.87176C111.572 1.46857 112.712 0.328584 114.115 0.354008C145.639 0.925284 172.754 12.1601 195.459 34.0585C196.469 35.0326 196.469 36.6446 195.477 37.6368L115.91 117.204Z" fill="url(#paint7_linear_34_3007)" stroke="white" stroke-width="2.54071" stroke-linejoin="round"/>
</g>
<defs>
<linearGradient id="paint0_linear_34_3007" x1="109.595" y1="110.098" x2="70.961" y2="37.1229" gradientUnits="userSpaceOnUse">
<stop stop-color="#00F0FF"/>
<stop offset="1" stop-color="#0085FF"/>
</linearGradient>
<linearGradient id="paint1_linear_34_3007" x1="59.2634" y1="97.3273" x2="109.81" y2="120.83" gradientUnits="userSpaceOnUse">
<stop stop-color="#FF7A00"/>
<stop offset="1" stop-color="#FFE200"/>
</linearGradient>
<linearGradient id="paint2_linear_34_3007" x1="7.64423" y1="164.186" x2="117.107" y2="117.396" gradientUnits="userSpaceOnUse">
<stop stop-color="#FF5794"/>
<stop offset="1" stop-color="#FC72FF"/>
</linearGradient>
<linearGradient id="paint3_linear_34_3007" x1="85.2337" y1="184.469" x2="109.917" y2="124.693" gradientUnits="userSpaceOnUse">
<stop stop-color="#20B82F"/>
<stop offset="1" stop-color="#00F4D6"/>
</linearGradient>
<linearGradient id="paint4_linear_34_3007" x1="142.541" y1="200.566" x2="113.351" y2="124.371" gradientUnits="userSpaceOnUse">
<stop stop-color="#FF4040"/>
<stop offset="1" stop-color="#FF9432"/>
</linearGradient>
<linearGradient id="paint5_linear_34_3007" x1="206.502" y1="162.898" x2="114.853" y2="122.761" gradientUnits="userSpaceOnUse">
<stop stop-color="#7F21CE"/>
<stop offset="0.981755" stop-color="#CB00FF"/>
</linearGradient>
<linearGradient id="paint6_linear_34_3007" x1="212.833" y1="73.6102" x2="113.244" y2="121.541" gradientUnits="userSpaceOnUse">
<stop stop-color="#C3FF19"/>
<stop offset="1" stop-color="#69FF35"/>
</linearGradient>
<linearGradient id="paint7_linear_34_3007" x1="154.423" y1="0.331055" x2="154.423" y2="121.541" gradientUnits="userSpaceOnUse">
<stop stop-color="#FFE307"/>
<stop offset="1" stop-color="#FFF8B5"/>
</linearGradient>
<clipPath id="clip0_34_3007">
<rect width="220.032" height="205.801" fill="white" transform="translate(0.983887 0.331055)"/>
</clipPath>
</defs>
</svg>
