<svg width="33" height="33" viewBox="0 0 33 33" fill="none" xmlns="http://www.w3.org/2000/svg">
  <circle cx="16.5" cy="16.5" r="16.5" fill="#F6F5FA"/>
  <path fill="currentColor" d="M9 20.6348V18.6348H16V20.6348H9ZM9 16.6348V14.6348H20V16.6348H9ZM9 12.6348V10.6348H20V12.6348H9ZM18 26.6348V23.5598L23.525 18.0598C23.675 17.9098 23.8417 17.8014 24.025 17.7348C24.2083 17.6681 24.3917 17.6348 24.575 17.6348C24.775 17.6348 24.9667 17.6723 25.15 17.7473C25.3333 17.8223 25.5 17.9348 25.65 18.0848L26.575 19.0098C26.7083 19.1598 26.8125 19.3264 26.8875 19.5098C26.9625 19.6931 27 19.8764 27 20.0598C27 20.2431 26.9667 20.4306 26.9 20.6223C26.8333 20.8139 26.725 20.9848 26.575 21.1348L21.075 26.6348H18ZM19.5 25.1348H20.45L23.475 22.0848L23.025 21.6098L22.55 21.1598L19.5 24.1848V25.1348ZM23.025 21.6098L22.55 21.1598L23.475 22.0848L23.025 21.6098Z" />
</svg>
