<svg width="939" height="937" viewBox="0 0 939 937" fill="none" xmlns="http://www.w3.org/2000/svg">
<g style="mix-blend-mode:color-dodge" opacity="0.3">
<g style="mix-blend-mode:multiply">
<path d="M469.36 935.84C728.011 935.84 937.688 726.603 937.688 468.5C937.688 210.397 728.011 1.16296 469.36 1.16296C210.71 1.16296 1.03271 210.397 1.03271 468.5C1.03271 726.603 210.71 935.84 469.36 935.84Z" stroke="white" stroke-width="0.840214" stroke-miterlimit="10"/>
<path d="M469.227 896.02C705.842 896.02 897.657 704.614 897.657 468.5C897.657 232.385 705.842 40.976 469.227 40.976C232.611 40.976 40.7964 232.385 40.7964 468.5C40.7964 704.614 232.611 896.02 469.227 896.02Z" stroke="white" stroke-width="0.840214" stroke-miterlimit="10"/>
<path d="M469.093 856.21C683.674 856.21 857.625 682.626 857.625 468.499C857.625 254.373 683.674 80.789 469.093 80.789C254.512 80.789 80.5601 254.373 80.5601 468.499C80.5601 682.626 254.512 856.21 469.093 856.21Z" stroke="white" stroke-width="0.840214" stroke-miterlimit="10"/>
<path d="M468.959 816.397C661.505 816.397 817.594 660.638 817.594 468.5C817.594 276.361 661.505 120.603 468.959 120.603C276.413 120.603 120.324 276.361 120.324 468.5C120.324 660.638 276.413 816.397 468.959 816.397Z" stroke="white" stroke-width="0.840214" stroke-miterlimit="10"/>
<path d="M468.825 776.584C639.336 776.584 777.563 638.65 777.563 468.5C777.563 298.349 639.336 160.416 468.825 160.416C298.314 160.416 160.087 298.349 160.087 468.5C160.087 638.65 298.314 776.584 468.825 776.584Z" stroke="white" stroke-width="0.840214" stroke-miterlimit="10"/>
<path d="M468.691 736.771C617.167 736.771 737.531 616.662 737.531 468.5C737.531 320.338 617.167 200.229 468.691 200.229C320.215 200.229 199.851 320.338 199.851 468.5C199.851 616.662 320.215 736.771 468.691 736.771Z" stroke="white" stroke-width="0.840214" stroke-miterlimit="10"/>
<path d="M468.557 696.958C594.999 696.958 697.5 594.674 697.5 468.5C697.5 342.326 594.999 240.042 468.557 240.042C342.116 240.042 239.615 342.326 239.615 468.5C239.615 594.674 342.116 696.958 468.557 696.958Z" stroke="white" stroke-width="0.840214" stroke-miterlimit="10"/>
<path d="M468.558 657.145C572.964 657.145 657.602 572.685 657.602 468.5C657.602 364.314 572.964 279.855 468.558 279.855C364.151 279.855 279.513 364.314 279.513 468.5C279.513 572.685 364.151 657.145 468.558 657.145Z" stroke="white" stroke-width="0.840214" stroke-miterlimit="10"/>
<path d="M468.424 617.331C550.795 617.331 617.571 550.697 617.571 468.5C617.571 386.302 550.795 319.668 468.424 319.668C386.052 319.668 319.276 386.302 319.276 468.5C319.276 550.697 386.052 617.331 468.424 617.331Z" stroke="white" stroke-width="0.840214" stroke-miterlimit="10"/>
<path d="M468.29 577.518C528.627 577.518 577.539 528.709 577.539 468.5C577.539 408.291 528.627 359.481 468.29 359.481C407.953 359.481 359.04 408.291 359.04 468.5C359.04 528.709 407.953 577.518 468.29 577.518Z" stroke="white" stroke-width="0.840214" stroke-miterlimit="10"/>
<path d="M468.154 537.705C506.457 537.705 537.507 506.721 537.507 468.5C537.507 430.279 506.457 399.294 468.154 399.294C429.852 399.294 398.802 430.279 398.802 468.5C398.802 506.721 429.852 537.705 468.154 537.705Z" stroke="white" stroke-width="0.840214" stroke-miterlimit="10"/>
<path d="M468.022 497.892C484.289 497.892 497.477 484.733 497.477 468.5C497.477 452.267 484.289 439.107 468.022 439.107C451.755 439.107 438.567 452.267 438.567 468.5C438.567 484.733 451.755 497.892 468.022 497.892Z" stroke="white" stroke-width="0.840214" stroke-miterlimit="10"/>
</g>
</g>
</svg>
