<svg width="587" height="1025" viewBox="0 0 587 1025" fill="none" xmlns="http://www.w3.org/2000/svg">
<g style="mix-blend-mode:color-dodge" opacity="0.3">
<g style="mix-blend-mode:multiply">
<path d="M0.998901 1034.17C321.78 1034.17 581.824 774.567 581.824 454.333C581.824 134.099 321.78 -125.501 0.998901 -125.501C-319.782 -125.501 -579.827 134.099 -579.827 454.333C-579.827 774.567 -319.782 1034.17 0.998901 1034.17Z" stroke="white" stroke-width="0.840214" stroke-miterlimit="10"/>
<path d="M0.832947 984.77C294.286 984.77 532.177 747.285 532.177 454.333C532.177 161.38 294.286 -76.1045 0.832947 -76.1045C-292.62 -76.1045 -530.511 161.38 -530.511 454.333C-530.511 747.285 -292.62 984.77 0.832947 984.77Z" stroke="white" stroke-width="0.840214" stroke-miterlimit="10"/>
<path d="M0.667053 935.374C266.793 935.374 482.53 720.004 482.53 454.333C482.53 188.662 266.793 -26.7075 0.667053 -26.7075C-265.458 -26.7075 -481.196 188.662 -481.196 454.333C-481.196 720.004 -265.458 935.374 0.667053 935.374Z" stroke="white" stroke-width="0.840214" stroke-miterlimit="10"/>
<path d="M0.500946 885.976C239.299 885.976 432.882 692.723 432.882 454.333C432.882 215.943 239.299 22.6895 0.500946 22.6895C-238.297 22.6895 -431.88 215.943 -431.88 454.333C-431.88 692.723 -238.297 885.976 0.500946 885.976Z" stroke="white" stroke-width="0.840214" stroke-miterlimit="10"/>
<path d="M0.334961 836.579C211.805 836.579 383.235 665.442 383.235 454.333C383.235 243.224 211.805 72.0864 0.334961 72.0864C-211.135 72.0864 -382.565 243.224 -382.565 454.333C-382.565 665.442 -211.135 836.579 0.334961 836.579Z" stroke="white" stroke-width="0.840214" stroke-miterlimit="10"/>
<path d="M0.168701 787.182C184.311 787.182 333.587 638.161 333.587 454.333C333.587 270.505 184.311 121.483 0.168701 121.483C-183.973 121.483 -333.25 270.505 -333.25 454.333C-333.25 638.161 -183.973 787.182 0.168701 787.182Z" stroke="white" stroke-width="0.840214" stroke-miterlimit="10"/>
<path d="M0.0027771 737.785C156.817 737.785 283.94 610.879 283.94 454.333C283.94 297.786 156.817 170.88 0.0027771 170.88C-156.811 170.88 -283.934 297.786 -283.934 454.333C-283.934 610.879 -156.811 737.785 0.0027771 737.785Z" stroke="white" stroke-width="0.840214" stroke-miterlimit="10"/>
<path d="M0.00328064 688.388C129.49 688.388 234.459 583.598 234.459 454.333C234.459 325.068 129.49 220.277 0.00328064 220.277C-129.483 220.277 -234.452 325.068 -234.452 454.333C-234.452 583.598 -129.483 688.388 0.00328064 688.388Z" stroke="white" stroke-width="0.840214" stroke-miterlimit="10"/>
<path d="M-0.162979 638.991C101.995 638.991 184.811 556.317 184.811 454.333C184.811 352.349 101.995 269.674 -0.162979 269.674C-102.321 269.674 -185.137 352.349 -185.137 454.333C-185.137 556.317 -102.321 638.991 -0.162979 638.991Z" stroke="white" stroke-width="0.840214" stroke-miterlimit="10"/>
<path d="M-0.32901 589.594C74.5016 589.594 135.164 529.036 135.164 454.333C135.164 379.63 74.5016 319.071 -0.32901 319.071C-75.1596 319.071 -135.822 379.63 -135.822 454.333C-135.822 529.036 -75.1596 589.594 -0.32901 589.594Z" stroke="white" stroke-width="0.840214" stroke-miterlimit="10"/>
<path d="M-0.496735 540.198C47.006 540.198 85.5146 501.755 85.5146 454.333C85.5146 406.912 47.006 368.469 -0.496735 368.469C-47.9995 368.469 -86.5081 406.912 -86.5081 454.333C-86.5081 501.755 -47.9995 540.198 -0.496735 540.198Z" stroke="white" stroke-width="0.840214" stroke-miterlimit="10"/>
<path d="M-0.661007 490.8C19.5139 490.8 35.8689 474.473 35.8689 454.333C35.8689 434.192 19.5139 417.865 -0.661007 417.865C-20.8359 417.865 -37.1909 434.192 -37.1909 454.333C-37.1909 474.473 -20.8359 490.8 -0.661007 490.8Z" stroke="white" stroke-width="0.840214" stroke-miterlimit="10"/>
</g>
<circle cx="567.184" cy="123.733" r="2.25" fill="white"/>
<circle cx="135.166" cy="368.468" r="2.25" fill="white"/>
<circle cx="579.574" cy="883.727" r="2.25" fill="white"/>
<circle cx="480.281" cy="587.345" r="2.25" fill="white"/>
<circle cx="173.713" cy="819.625" r="2.25" fill="white"/>
</g>
</svg>
