<svg width="111" height="144" viewBox="0 0 111 144" fill="none" xmlns="http://www.w3.org/2000/svg">
<path d="M71.5131 26.611C78.6851 26.611 84.6726 20.5775 84.6726 13.4947C84.6726 10.016 83.2862 6.67987 80.8183 4.22009C78.3504 1.76031 75.0033 0.378418 71.5131 0.378418C64.2096 0.378418 58.3536 6.14958 58.3536 13.4947C58.3536 20.5775 64.2096 26.611 71.5131 26.611ZM47.7602 117.638C54.34 114.5 54.34 88.9133 54.34 88.9133C54.34 88.9133 64.2922 95.6908 68.2232 102.03C76.322 115.089 63.9545 138.878 68.2232 141.378C72.4919 143.878 76.7736 144.823 81.3828 141.378C85.9919 137.934 86.4919 96.5 81.3828 92.1924C76.2736 87.8847 67.4995 79.0761 67.4995 79.0761L71.5131 59.4017C76.0216 64.5507 81.5839 68.6779 87.8259 71.5059C94.068 74.3338 103.412 78.094 107.702 75.797C111.992 73.5 111.445 65.5 107.702 62.6807C103.958 59.8615 84.6727 56.1226 79.343 46.81L72.7633 36.4482C70.1314 32.3821 66.1835 29.89 61.6435 29.89C59.6038 29.89 58.3536 30.4147 56.3139 30.4147C56.3139 30.4147 27.5 40 22.1649 44.8426C16.8298 49.6852 18.3298 72.518 22.1649 75.797C26 79.0761 34 79.0761 35.3244 75.797C36.6489 72.518 32.1489 57.9589 35.3244 53.3682C38.5 48.7775 47.1022 48.7775 47.1022 48.7775C47.1022 48.7775 42.4919 98.3784 36.5746 102.03C30.6572 105.681 4.33375 95.4714 4.33375 95.4714C-0.0442243 99.2568 -0.796731 101.968 1.70184 108.588C1.70184 108.588 41.1804 120.776 47.7602 117.638Z" fill="url(#paint0_linear_66_87)"/>
<defs>
<linearGradient id="paint0_linear_66_87" x1="106.619" y1="124.91" x2="43.9441" y2="-3.47966" gradientUnits="userSpaceOnUse">
<stop stop-color="#00F0FF"/>
<stop offset="1" stop-color="#0085FF"/>
</linearGradient>
</defs>
</svg>
