<svg width="22" height="24" viewBox="0 0 22 24" fill="none" xmlns="http://www.w3.org/2000/svg">
<path d="M9.63546 23.7617C9.11588 23.7617 8.66845 23.5885 8.2932 23.2421C7.91794 22.8957 7.69182 22.4724 7.61485 21.972L7.35505 20.0669C7.10488 19.9707 6.86914 19.8552 6.64784 19.7205C6.42653 19.5858 6.21003 19.4415 5.99835 19.2875L4.20866 20.038C3.72756 20.2497 3.24646 20.2689 2.76536 20.0957C2.28426 19.9226 1.909 19.6146 1.63959 19.172L0.282887 16.805C0.0134708 16.3624 -0.0635052 15.8909 0.0519588 15.3906C0.167423 14.8903 0.427216 14.4765 0.83134 14.1494L2.36124 12.9947C2.34199 12.86 2.33237 12.7301 2.33237 12.605V11.8256C2.33237 11.7006 2.34199 11.5707 2.36124 11.436L0.83134 10.2813C0.427216 9.95417 0.167423 9.54042 0.0519588 9.04008C-0.0635052 8.53974 0.0134708 8.06826 0.282887 7.62565L1.63959 5.25864C1.909 4.81602 2.28426 4.50812 2.76536 4.33492C3.24646 4.16173 3.72756 4.18097 4.20866 4.39266L5.99835 5.14317C6.21003 4.98922 6.43134 4.84489 6.66227 4.71018C6.8932 4.57547 7.12412 4.46001 7.35505 4.36379L7.61485 2.45864C7.69182 1.95829 7.91794 1.53492 8.2932 1.18853C8.66845 0.842141 9.11588 0.668945 9.63546 0.668945H12.3489C12.8685 0.668945 13.3159 0.842141 13.6911 1.18853C14.0664 1.53492 14.2925 1.95829 14.3695 2.45864L14.6293 4.36379C14.8795 4.46001 15.1152 4.57547 15.3365 4.71018C15.5578 4.84489 15.7743 4.98922 15.986 5.14317L17.7757 4.39266C18.2568 4.18097 18.7379 4.16173 19.219 4.33492C19.7001 4.50812 20.0753 4.81602 20.3447 5.25864L21.7014 7.62565C21.9709 8.06826 22.0478 8.53974 21.9324 9.04008C21.8169 9.54042 21.5571 9.95417 21.153 10.2813L19.6231 11.436C19.6423 11.5707 19.652 11.7006 19.652 11.8256V12.605C19.652 12.7301 19.6327 12.86 19.5942 12.9947L21.1241 14.1494C21.5282 14.4765 21.788 14.8903 21.9035 15.3906C22.019 15.8909 21.942 16.3624 21.6726 16.805L20.287 19.172C20.0176 19.6146 19.6423 19.9226 19.1612 20.0957C18.6801 20.2689 18.199 20.2497 17.7179 20.038L15.986 19.2875C15.7743 19.4415 15.553 19.5858 15.3221 19.7205C15.0911 19.8552 14.8602 19.9707 14.6293 20.0669L14.3695 21.972C14.2925 22.4724 14.0664 22.8957 13.6911 23.2421C13.3159 23.5885 12.8685 23.7617 12.3489 23.7617H9.63546ZM9.83753 21.4524H12.1179L12.5221 18.3927C13.1186 18.2387 13.6719 18.0126 14.1819 17.7143C14.6918 17.416 15.1585 17.0552 15.5819 16.6318L18.4396 17.8153L19.5654 15.8524L17.0829 13.9762C17.1791 13.7067 17.2465 13.4229 17.2849 13.1246C17.3234 12.8263 17.3427 12.5232 17.3427 12.2153C17.3427 11.9074 17.3234 11.6043 17.2849 11.3061C17.2465 11.0078 17.1791 10.7239 17.0829 10.4545L19.5654 8.57822L18.4396 6.61534L15.5819 7.82771C15.1585 7.3851 14.6918 7.01465 14.1819 6.71637C13.6719 6.41809 13.1186 6.19197 12.5221 6.03802L12.1468 2.97822H9.86639L9.46227 6.03802C8.8657 6.19197 8.31244 6.41809 7.80247 6.71637C7.29251 7.01465 6.82584 7.37547 6.40247 7.79884L3.54474 6.61534L2.41897 8.57822L4.90144 10.4256C4.80522 10.7143 4.73787 11.003 4.69938 11.2916C4.66089 11.5803 4.64165 11.8882 4.64165 12.2153C4.64165 12.5232 4.66089 12.8215 4.69938 13.1102C4.73787 13.3988 4.80522 13.6875 4.90144 13.9762L2.41897 15.8524L3.54474 17.8153L6.40247 16.603C6.82584 17.0456 7.29251 17.416 7.80247 17.7143C8.31244 18.0126 8.8657 18.2387 9.46227 18.3927L9.83753 21.4524ZM11.0499 16.2566C12.166 16.2566 13.1186 15.8621 13.9076 15.0731C14.6966 14.2841 15.0911 13.3315 15.0911 12.2153C15.0911 11.0992 14.6966 10.1466 13.9076 9.3576C13.1186 8.5686 12.166 8.1741 11.0499 8.1741C9.9145 8.1741 8.95711 8.5686 8.17773 9.3576C7.39835 10.1466 7.00866 11.0992 7.00866 12.2153C7.00866 13.3315 7.39835 14.2841 8.17773 15.0731C8.95711 15.8621 9.9145 16.2566 11.0499 16.2566Z" fill="#E0E0E0"/>
</svg>
