<svg width="22" height="24" viewBox="0 0 22 24" fill="none" xmlns="http://www.w3.org/2000/svg">
<path d="M9.63546 23.0928C9.11588 23.0928 8.66845 22.9196 8.2932 22.5732C7.91794 22.2268 7.69182 21.8034 7.61485 21.3031L7.35505 19.3979C7.10488 19.3017 6.86914 19.1863 6.64784 19.0515C6.42653 18.9168 6.21003 18.7725 5.99835 18.6186L4.20866 19.3691C3.72756 19.5808 3.24646 19.6 2.76536 19.4268C2.28426 19.2536 1.909 18.9457 1.63959 18.5031L0.282887 16.1361C0.0134708 15.6935 -0.0635052 15.222 0.0519588 14.7216C0.167423 14.2213 0.427216 13.8076 0.83134 13.4804L2.36124 12.3258C2.34199 12.1911 2.33237 12.0612 2.33237 11.9361V11.1567C2.33237 11.0316 2.34199 10.9017 2.36124 10.767L0.83134 9.61237C0.427216 9.28522 0.167423 8.87148 0.0519588 8.37113C-0.0635052 7.87079 0.0134708 7.39931 0.282887 6.9567L1.63959 4.58969C1.909 4.14708 2.28426 3.83918 2.76536 3.66598C3.24646 3.49278 3.72756 3.51203 4.20866 3.72371L5.99835 4.47423C6.21003 4.32027 6.43134 4.17594 6.66227 4.04124C6.8932 3.90653 7.12412 3.79107 7.35505 3.69485L7.61485 1.78969C7.69182 1.28935 7.91794 0.865979 8.2932 0.519588C8.66845 0.173196 9.11588 0 9.63546 0H12.3489C12.8685 0 13.3159 0.173196 13.6911 0.519588C14.0664 0.865979 14.2925 1.28935 14.3695 1.78969L14.6293 3.69485C14.8795 3.79107 15.1152 3.90653 15.3365 4.04124C15.5578 4.17594 15.7743 4.32027 15.986 4.47423L17.7757 3.72371C18.2568 3.51203 18.7379 3.49278 19.219 3.66598C19.7001 3.83918 20.0753 4.14708 20.3447 4.58969L21.7014 6.9567C21.9709 7.39931 22.0478 7.87079 21.9324 8.37113C21.8169 8.87148 21.5571 9.28522 21.153 9.61237L19.6231 10.767C19.6423 10.9017 19.652 11.0316 19.652 11.1567V11.9361C19.652 12.0612 19.6327 12.1911 19.5942 12.3258L21.1241 13.4804C21.5282 13.8076 21.788 14.2213 21.9035 14.7216C22.019 15.222 21.942 15.6935 21.6726 16.1361L20.287 18.5031C20.0176 18.9457 19.6423 19.2536 19.1612 19.4268C18.6801 19.6 18.199 19.5808 17.7179 19.3691L15.986 18.6186C15.7743 18.7725 15.553 18.9168 15.3221 19.0515C15.0911 19.1863 14.8602 19.3017 14.6293 19.3979L14.3695 21.3031C14.2925 21.8034 14.0664 22.2268 13.6911 22.5732C13.3159 22.9196 12.8685 23.0928 12.3489 23.0928H9.63546ZM9.83753 20.7835H12.1179L12.5221 17.7237C13.1186 17.5698 13.6719 17.3436 14.1819 17.0454C14.6918 16.7471 15.1585 16.3863 15.5819 15.9629L18.4396 17.1464L19.5654 15.1835L17.0829 13.3072C17.1791 13.0378 17.2465 12.754 17.2849 12.4557C17.3234 12.1574 17.3427 11.8543 17.3427 11.5464C17.3427 11.2385 17.3234 10.9354 17.2849 10.6371C17.2465 10.3388 17.1791 10.055 17.0829 9.78557L19.5654 7.90928L18.4396 5.94639L15.5819 7.15876C15.1585 6.71615 14.6918 6.3457 14.1819 6.04742C13.6719 5.74914 13.1186 5.52302 12.5221 5.36907L12.1468 2.30928H9.86639L9.46227 5.36907C8.8657 5.52302 8.31244 5.74914 7.80247 6.04742C7.29251 6.3457 6.82584 6.70653 6.40247 7.1299L3.54474 5.94639L2.41897 7.90928L4.90144 9.7567C4.80522 10.0454 4.73787 10.334 4.69938 10.6227C4.66089 10.9113 4.64165 11.2192 4.64165 11.5464C4.64165 11.8543 4.66089 12.1526 4.69938 12.4412C4.73787 12.7299 4.80522 13.0186 4.90144 13.3072L2.41897 15.1835L3.54474 17.1464L6.40247 15.934C6.82584 16.3766 7.29251 16.7471 7.80247 17.0454C8.31244 17.3436 8.8657 17.5698 9.46227 17.7237L9.83753 20.7835ZM11.0499 15.5876C12.166 15.5876 13.1186 15.1931 13.9076 14.4041C14.6966 13.6151 15.0911 12.6625 15.0911 11.5464C15.0911 10.4302 14.6966 9.47766 13.9076 8.68866C13.1186 7.89966 12.166 7.50515 11.0499 7.50515C9.9145 7.50515 8.95711 7.89966 8.17773 8.68866C7.39835 9.47766 7.00866 10.4302 7.00866 11.5464C7.00866 12.6625 7.39835 13.6151 8.17773 14.4041C8.95711 15.1931 9.9145 15.5876 11.0499 15.5876Z" fill="url(#paint0_linear_135_309)"/>
<defs>
<linearGradient id="paint0_linear_135_309" x1="10.9922" y1="0" x2="10.9922" y2="23.0928" gradientUnits="userSpaceOnUse">
<stop stop-color="#0D99FF"/>
<stop offset="1" stop-color="#00F0FF"/>
</linearGradient>
</defs>
</svg>
