<svg width="18" height="23" viewBox="0 0 18 23" fill="none" xmlns="http://www.w3.org/2000/svg">
<path d="M0 11.5C0 11.805 0.118527 12.0975 0.329505 12.3132C0.540484 12.5288 0.826631 12.65 1.125 12.65H9.66375L7.07625 15.2835C6.97081 15.3904 6.88711 15.5176 6.83 15.6577C6.77288 15.7979 6.74348 15.9482 6.74348 16.1C6.74348 16.2518 6.77288 16.4021 6.83 16.5423C6.88711 16.6824 6.97081 16.8096 7.07625 16.9165C7.18083 17.0243 7.30526 17.1098 7.44235 17.1682C7.57944 17.2266 7.72649 17.2567 7.875 17.2567C8.02351 17.2567 8.17056 17.2266 8.30765 17.1682C8.44474 17.1098 8.56917 17.0243 8.67375 16.9165L13.1738 12.3165C13.2762 12.2071 13.3565 12.0782 13.41 11.937C13.5225 11.657 13.5225 11.343 13.41 11.063C13.3565 10.9218 13.2762 10.7929 13.1738 10.6835L8.67375 6.0835C8.56886 5.97628 8.44433 5.89122 8.30728 5.83319C8.17023 5.77516 8.02334 5.74529 7.875 5.74529C7.72666 5.74529 7.57977 5.77516 7.44272 5.83319C7.30567 5.89122 7.18114 5.97628 7.07625 6.0835C6.97136 6.19072 6.88815 6.31802 6.83138 6.45811C6.77461 6.59821 6.7454 6.74836 6.7454 6.9C6.7454 7.05164 6.77461 7.20179 6.83138 7.34189C6.88815 7.48198 6.97136 7.60928 7.07625 7.7165L9.66375 10.35H1.125C0.826631 10.35 0.540484 10.4712 0.329505 10.6868C0.118527 10.9025 0 11.195 0 11.5ZM14.625 0H3.375C2.47989 0 1.62145 0.363481 0.988515 1.01048C0.355579 1.65748 0 2.535 0 3.45V6.9C0 7.205 0.118527 7.49751 0.329505 7.71317C0.540484 7.92884 0.826631 8.05 1.125 8.05C1.42337 8.05 1.70952 7.92884 1.92049 7.71317C2.13147 7.49751 2.25 7.205 2.25 6.9V3.45C2.25 3.145 2.36853 2.85249 2.57951 2.63683C2.79048 2.42116 3.07663 2.3 3.375 2.3H14.625C14.9234 2.3 15.2095 2.42116 15.4205 2.63683C15.6315 2.85249 15.75 3.145 15.75 3.45V19.55C15.75 19.855 15.6315 20.1475 15.4205 20.3632C15.2095 20.5788 14.9234 20.7 14.625 20.7H3.375C3.07663 20.7 2.79048 20.5788 2.57951 20.3632C2.36853 20.1475 2.25 19.855 2.25 19.55V16.1C2.25 15.795 2.13147 15.5025 1.92049 15.2868C1.70952 15.0712 1.42337 14.95 1.125 14.95C0.826631 14.95 0.540484 15.0712 0.329505 15.2868C0.118527 15.5025 0 15.795 0 16.1V19.55C0 20.465 0.355579 21.3425 0.988515 21.9895C1.62145 22.6365 2.47989 23 3.375 23H14.625C15.5201 23 16.3786 22.6365 17.0115 21.9895C17.6444 21.3425 18 20.465 18 19.55V3.45C18 2.535 17.6444 1.65748 17.0115 1.01048C16.3786 0.363481 15.5201 0 14.625 0Z" fill="black"/>
</svg>
