<svg width="19" height="24" viewBox="0 0 19 24" fill="none" xmlns="http://www.w3.org/2000/svg">
<path d="M7.99588 15.8236L6.37938 14.2071C6.26392 14.0916 6.13883 14.005 6.00412 13.9473C5.86942 13.8896 5.7299 13.8607 5.58557 13.8607C5.44124 13.8607 5.29691 13.8896 5.15258 13.9473C5.00825 14.005 4.87835 14.0916 4.76289 14.2071C4.53196 14.438 4.41649 14.7122 4.41649 15.0298C4.41649 15.3473 4.53196 15.6215 4.76289 15.8524L7.21649 18.3349C7.33196 18.4504 7.45704 18.5322 7.59175 18.5803C7.72646 18.6284 7.87079 18.6525 8.02474 18.6525C8.17869 18.6525 8.32302 18.6284 8.45773 18.5803C8.59244 18.5322 8.71753 18.4504 8.83299 18.3349L13.7113 13.4566C13.9423 13.2256 14.0577 12.9466 14.0577 12.6195C14.0577 12.2923 13.9423 12.0133 13.7113 11.7823C13.4804 11.5514 13.2014 11.436 12.8742 11.436C12.5471 11.436 12.268 11.5514 12.0371 11.7823L7.99588 15.8236ZM2.30928 23.7617C1.67423 23.7617 1.13058 23.5356 0.678351 23.0834C0.226117 22.6311 0 22.0875 0 21.4524V2.97822C0 2.34317 0.226117 1.79953 0.678351 1.3473C1.13058 0.895062 1.67423 0.668945 2.30928 0.668945H10.5938C10.9017 0.668945 11.1952 0.726677 11.4742 0.842141C11.7533 0.957605 11.9986 1.12118 12.2103 1.33286L17.8103 6.93286C18.022 7.14455 18.1856 7.38991 18.301 7.66894C18.4165 7.94798 18.4742 8.24145 18.4742 8.54936V21.4524C18.4742 22.0875 18.2481 22.6311 17.7959 23.0834C17.3436 23.5356 16.8 23.7617 16.1649 23.7617H2.30928ZM10.3918 7.59678V2.97822H2.30928V21.4524H16.1649V8.75142H11.5464C11.2192 8.75142 10.945 8.64077 10.7237 8.41946C10.5024 8.19815 10.3918 7.92393 10.3918 7.59678Z" fill="#E0E0E0"/>
</svg>
