<svg width="19" height="24" viewBox="0 0 19 24" fill="none" xmlns="http://www.w3.org/2000/svg">
<path d="M7.99588 15.8216L6.37938 14.2051C6.26392 14.0897 6.13883 14.0031 6.00412 13.9453C5.86942 13.8876 5.7299 13.8587 5.58557 13.8587C5.44124 13.8587 5.29691 13.8876 5.15258 13.9453C5.00825 14.0031 4.87835 14.0897 4.76289 14.2051C4.53196 14.4361 4.41649 14.7103 4.41649 15.0278C4.41649 15.3453 4.53196 15.6196 4.76289 15.8505L7.21649 18.333C7.33196 18.4484 7.45704 18.5302 7.59175 18.5783C7.72646 18.6264 7.87079 18.6505 8.02474 18.6505C8.17869 18.6505 8.32302 18.6264 8.45773 18.5783C8.59244 18.5302 8.71753 18.4484 8.83299 18.333L13.7113 13.4546C13.9423 13.2237 14.0577 12.9447 14.0577 12.6175C14.0577 12.2904 13.9423 12.0113 13.7113 11.7804C13.4804 11.5495 13.2014 11.434 12.8742 11.434C12.5471 11.434 12.268 11.5495 12.0371 11.7804L7.99588 15.8216ZM2.30928 23.7598C1.67423 23.7598 1.13058 23.5337 0.678351 23.0814C0.226117 22.6292 0 22.0855 0 21.4505V2.97627C0 2.34122 0.226117 1.79758 0.678351 1.34534C1.13058 0.893109 1.67423 0.666992 2.30928 0.666992H10.5938C10.9017 0.666992 11.1952 0.724724 11.4742 0.840188C11.7533 0.955652 11.9986 1.11923 12.2103 1.33091L17.8103 6.93091C18.022 7.14259 18.1856 7.38795 18.301 7.66699C18.4165 7.94603 18.4742 8.2395 18.4742 8.5474V21.4505C18.4742 22.0855 18.2481 22.6292 17.7959 23.0814C17.3436 23.5337 16.8 23.7598 16.1649 23.7598H2.30928ZM10.3918 7.59483V2.97627H2.30928V21.4505H16.1649V8.74947H11.5464C11.2192 8.74947 10.945 8.63881 10.7237 8.41751C10.5024 8.1962 10.3918 7.92197 10.3918 7.59483Z" fill="url(#paint0_linear_1094_4037)"/>
<defs>
<linearGradient id="paint0_linear_1094_4037" x1="17.7886" y1="20.7433" x2="7.91577" y2="-0.242799" gradientUnits="userSpaceOnUse">
<stop stop-color="#00F0FF"/>
<stop offset="1" stop-color="#0085FF"/>
</linearGradient>
</defs>
</svg>
