<svg xmlns="http://www.w3.org/2000/svg" width="12" height="12" viewBox="0 0 512 512"><path fill="url(#paint0_linear_58_5467)" d="M288 109.3L288 352c0 17.7-14.3 32-32 32s-32-14.3-32-32l0-242.7-73.4 73.4c-12.5 12.5-32.8 12.5-45.3 0s-12.5-32.8 0-45.3l128-128c12.5-12.5 32.8-12.5 45.3 0l128 128c12.5 12.5 12.5 32.8 0 45.3s-32.8 12.5-45.3 0L288 109.3zM64 352l128 0c0 35.3 28.7 64 64 64s64-28.7 64-64l128 0c35.3 0 64 28.7 64 64l0 32c0 35.3-28.7 64-64 64L64 512c-35.3 0-64-28.7-64-64l0-32c0-35.3 28.7-64 64-64zM432 456a24 24 0 1 0 0-48 24 24 0 1 0 0 48z"/><defs>
<linearGradient id="paint0_linear_58_5467" x1="22.0143" y1="19.598" x2="13.8534" y2="-2.39373" gradientUnits="userSpaceOnUse">
<stop stop-color="#01A9FF"/>
<stop offset="1" stop-color="#00F1FF"/>
</linearGradient>
</defs></svg>