<svg width="23" height="23" viewBox="0 0 23 23" fill="none" xmlns="http://www.w3.org/2000/svg">
<path d="M12.701 1.16822C12.701 0.783343 12.855 0.47544 13.1629 0.244512C13.4708 0.013584 13.8172 -0.05377 14.2021 0.04245C16.3574 0.504306 18.2192 1.53386 19.7876 3.13111C21.356 4.72836 22.3711 6.63351 22.833 8.84657C22.91 9.17372 22.8378 9.46719 22.6165 9.72699C22.3952 9.98678 22.0921 10.1167 21.7072 10.1167H15.0392C14.9622 10.1167 14.8948 10.0974 14.8371 10.0589C14.7794 10.0205 14.7313 9.96272 14.6928 9.88575C14.5196 9.48162 14.279 9.1208 13.9711 8.80327C13.6632 8.48575 13.3168 8.24039 12.932 8.06719C12.855 8.0287 12.7973 7.9854 12.7588 7.93729C12.7203 7.88918 12.701 7.82664 12.701 7.74967V1.16822ZM15.0103 2.72699V6.65276C15.222 6.82595 15.4241 7.00877 15.6165 7.20121C15.8089 7.39365 15.9918 7.59571 16.1649 7.8074H20.0907C19.6289 6.65276 18.9553 5.63283 18.0701 4.7476C17.1849 3.86238 16.1649 3.18884 15.0103 2.72699ZM8.89072 22.5002C6.31203 21.9036 4.18557 20.5662 2.51134 18.4878C0.837113 16.4095 0 14.004 0 11.2713C0 8.53867 0.837113 6.13798 2.51134 4.06925C4.18557 2.00053 6.31203 0.658258 8.89072 0.04245C9.2756 -0.05377 9.62199 0.023206 9.9299 0.273378C10.2378 0.52355 10.3918 0.841075 10.3918 1.22596V7.8074C10.3918 7.82664 10.334 7.90362 10.2186 8.03833C9.56426 8.30774 9.04467 8.73592 8.65979 9.32286C8.27491 9.9098 8.08247 10.5593 8.08247 11.2713C8.08247 11.9833 8.27491 12.6232 8.65979 13.1909C9.04467 13.7586 9.56426 14.1772 10.2186 14.4466C10.257 14.4658 10.3148 14.5428 10.3918 14.6775V21.3744C10.3918 21.7593 10.2378 22.0672 9.9299 22.2981C9.62199 22.529 9.2756 22.5964 8.89072 22.5002ZM8.08247 2.72699C6.33127 3.40053 4.93127 4.51668 3.88247 6.07544C2.83368 7.6342 2.30928 9.36616 2.30928 11.2713C2.30928 13.1765 2.83368 14.9084 3.88247 16.4672C4.93127 18.026 6.33127 19.1614 8.08247 19.8734V15.8899C7.3512 15.3318 6.78351 14.6534 6.37938 13.8548C5.97526 13.0562 5.7732 12.195 5.7732 11.2713C5.7732 10.3476 5.97526 9.48644 6.37938 8.68781C6.78351 7.88918 7.3512 7.21083 8.08247 6.65276V2.72699ZM14.2021 22.5002C13.8172 22.5964 13.4708 22.529 13.1629 22.2981C12.855 22.0672 12.701 21.7593 12.701 21.3744V14.7641C12.701 14.6871 12.7203 14.6198 12.7588 14.562C12.7973 14.5043 12.855 14.4562 12.932 14.4177C13.3168 14.2445 13.6632 14.004 13.9711 13.6961C14.279 13.3882 14.5196 13.0418 14.6928 12.6569C14.712 12.6184 14.8179 12.5414 15.0103 12.426H21.7072C22.0536 12.426 22.3423 12.5703 22.5732 12.8589C22.8041 13.1476 22.8811 13.4748 22.8041 13.8404C22.323 16.0534 21.2935 17.9394 19.7155 19.4981C18.1375 21.0569 16.2997 22.0576 14.2021 22.5002ZM16.1649 14.7352C16.011 14.9469 15.833 15.149 15.6309 15.3414C15.4289 15.5339 15.222 15.7167 15.0103 15.8899V19.8156C16.1649 19.3538 17.1849 18.6803 18.0701 17.795C18.9553 16.9098 19.6289 15.8899 20.0907 14.7352H16.1649Z" fill="#CBC9D0"/>
</svg>
