<svg width="339" height="141" viewBox="0 0 339 141" fill="none" xmlns="http://www.w3.org/2000/svg">
<g clip-path="url(#clip0_3249_815)">
<path d="M4.76265 139.586C3.19199 139.586 2.02666 139.181 1.216 138.37C0.405332 137.56 0 136.344 0 134.824V94.7973C0 93.2267 0.405332 92.0613 1.216 91.2507C2.02666 90.44 3.24265 90.0347 4.76265 90.0347H21.6346C25.0799 90.0347 28.0692 90.5413 30.5012 91.6053C32.9332 92.6187 34.8079 94.1387 36.0745 96.0133C37.3412 97.9386 37.9998 100.219 37.9998 102.904C37.9998 105.893 37.1385 108.427 35.4159 110.504C33.6932 112.581 31.3119 113.949 28.3226 114.659V113.595C31.7679 114.101 34.5039 115.419 36.4292 117.547C38.3545 119.675 39.3172 122.411 39.3172 125.755C39.3172 130.163 37.8479 133.557 34.8585 135.989C31.8692 138.421 27.7652 139.637 22.4452 139.637H4.76265V139.586ZM8.66397 111.011H20.1146C23.2052 111.011 25.5359 110.403 27.0559 109.237C28.5759 108.021 29.3359 106.248 29.3359 103.917C29.3359 101.587 28.5759 99.8133 27.0559 98.5973C25.5359 97.3813 23.2052 96.824 20.1146 96.824H8.66397V111.011ZM8.66397 132.746H21.3306C24.5226 132.746 26.8532 132.138 28.3732 130.872C29.8932 129.605 30.6025 127.781 30.6025 125.299C30.6025 122.765 29.8425 120.891 28.3732 119.675C26.8532 118.459 24.5226 117.851 21.3306 117.851H8.66397V132.746Z" fill="white"/>
<path d="M64.4983 140.295C60.597 140.295 57.253 139.586 54.4157 138.117C51.5784 136.647 49.4504 134.621 47.9304 131.935C46.4104 129.25 45.6504 126.109 45.6504 122.461C45.6504 118.914 46.4104 115.773 47.8797 113.088C49.349 110.402 51.3757 108.325 54.0104 106.805C56.5943 105.285 59.5837 104.525 62.9277 104.525C65.3596 104.525 67.5383 104.93 69.5143 105.741C71.4396 106.552 73.1116 107.666 74.5303 109.186C75.8983 110.706 76.9623 112.48 77.6716 114.658C78.3809 116.786 78.7863 119.218 78.7863 121.853C78.7863 122.714 78.4823 123.322 77.9249 123.778C77.3169 124.234 76.5063 124.437 75.4423 124.437H52.845V119.37H72.605L71.4903 120.434C71.4903 118.256 71.1863 116.482 70.5276 115.013C69.9196 113.544 68.957 112.429 67.7916 111.669C66.6263 110.909 65.1063 110.504 63.333 110.504C61.357 110.504 59.685 110.96 58.317 111.872C56.949 112.784 55.885 114.101 55.1757 115.722C54.4664 117.394 54.061 119.37 54.061 121.65V122.157C54.061 126.007 54.973 128.895 56.7463 130.77C58.5703 132.645 61.205 133.607 64.7516 133.607C65.9676 133.607 67.3356 133.455 68.8556 133.151C70.3756 132.847 71.8449 132.341 73.1623 131.581C74.1249 131.023 75.0369 130.77 75.7463 130.821C76.5063 130.871 77.1143 131.175 77.5196 131.631C77.9756 132.087 78.2289 132.695 78.3303 133.354C78.4316 134.013 78.2796 134.722 77.9249 135.431C77.5703 136.141 76.9623 136.749 76.1516 137.255C74.5303 138.269 72.605 139.029 70.477 139.535C68.2983 140.042 66.3223 140.295 64.4983 140.295Z" fill="white"/>
<path d="M91.3007 139.586C89.7301 139.586 88.5647 139.181 87.7541 138.37C86.9434 137.56 86.5381 136.344 86.5381 134.824V94.7973C86.5381 93.2267 86.9434 92.0613 87.7541 91.2507C88.5647 90.44 89.7807 90.0347 91.3007 90.0347H108.173C111.618 90.0347 114.607 90.5413 117.039 91.6053C119.471 92.6187 121.346 94.1387 122.613 96.0133C123.879 97.9386 124.538 100.219 124.538 102.904C124.538 105.893 123.677 108.427 121.954 110.504C120.231 112.581 117.85 113.949 114.861 114.659V113.595C118.306 114.101 121.042 115.419 122.967 117.547C124.893 119.675 125.855 122.411 125.855 125.755C125.855 130.163 124.386 133.557 121.397 135.989C118.407 138.421 114.303 139.637 108.983 139.637H91.3007V139.586ZM95.1514 111.011H106.602C109.693 111.011 112.023 110.403 113.543 109.237C115.063 108.021 115.823 106.248 115.823 103.917C115.823 101.587 115.063 99.8133 113.543 98.5973C112.023 97.3813 109.693 96.824 106.602 96.824H95.1514V111.011ZM95.1514 132.746H107.818C111.01 132.746 113.341 132.138 114.861 130.872C116.381 129.605 117.09 127.781 117.09 125.299C117.09 122.765 116.33 120.891 114.861 119.675C113.341 118.459 111.01 117.851 107.818 117.851H95.1514V132.746Z" fill="white"/>
<path d="M145.413 140.296C142.93 140.296 140.701 139.789 138.775 138.877C136.85 137.914 135.279 136.597 134.215 134.976C133.101 133.354 132.543 131.48 132.543 129.402C132.543 126.869 133.202 124.842 134.519 123.373C135.837 121.904 137.965 120.84 140.903 120.181C143.842 119.522 147.845 119.218 152.81 119.218H156.306V124.285H152.861C149.973 124.285 147.642 124.437 145.919 124.69C144.197 124.994 142.93 125.45 142.221 126.109C141.511 126.768 141.106 127.73 141.106 128.946C141.106 130.517 141.663 131.784 142.727 132.746C143.791 133.709 145.311 134.216 147.237 134.216C148.807 134.216 150.175 133.861 151.341 133.101C152.557 132.392 153.469 131.378 154.178 130.112C154.887 128.845 155.242 127.376 155.242 125.754V117.648C155.242 115.317 154.735 113.594 153.671 112.581C152.658 111.568 150.885 111.01 148.453 111.01C147.085 111.01 145.615 111.162 144.045 111.517C142.474 111.821 140.802 112.429 139.079 113.189C138.167 113.594 137.407 113.746 136.698 113.544C136.039 113.341 135.482 112.986 135.127 112.378C134.773 111.77 134.57 111.162 134.57 110.453C134.57 109.744 134.773 109.034 135.127 108.376C135.482 107.717 136.141 107.21 137.002 106.856C139.181 105.944 141.258 105.336 143.234 104.981C145.21 104.626 147.034 104.424 148.706 104.424C152.101 104.424 154.837 104.93 157.066 105.994C159.245 107.008 160.866 108.578 161.93 110.656C162.994 112.733 163.551 115.418 163.551 118.712V135.584C163.551 137.053 163.197 138.168 162.487 138.928C161.778 139.688 160.765 140.093 159.447 140.093C158.13 140.093 157.117 139.688 156.407 138.928C155.698 138.168 155.293 137.053 155.293 135.584V132.189H155.85C155.546 133.81 154.887 135.229 153.925 136.445C152.962 137.661 151.746 138.573 150.277 139.232C148.959 139.941 147.287 140.296 145.413 140.296Z" fill="white"/>
<path d="M184.324 140.295C180.423 140.295 177.484 139.181 175.508 136.951C173.532 134.722 172.57 131.429 172.57 127.122V93.8343C172.57 92.3649 172.924 91.3009 173.684 90.5409C174.444 89.7809 175.508 89.4263 176.927 89.4263C178.346 89.4263 179.41 89.7809 180.22 90.5409C180.98 91.3009 181.386 92.4156 181.386 93.8343V126.666C181.386 128.845 181.842 130.415 182.754 131.429C183.666 132.442 184.983 132.999 186.655 132.999C187.01 132.999 187.364 132.999 187.719 132.949C188.023 132.949 188.378 132.898 188.682 132.847C189.34 132.746 189.796 132.949 189.999 133.354C190.252 133.81 190.354 134.722 190.354 136.039C190.354 137.205 190.1 138.117 189.644 138.775C189.188 139.434 188.378 139.839 187.314 139.991C186.858 140.042 186.351 140.093 185.844 140.143C185.338 140.245 184.831 140.295 184.324 140.295Z" fill="white"/>
<path d="M206.314 140.296C203.831 140.296 201.602 139.789 199.676 138.877C197.751 137.914 196.18 136.597 195.116 134.976C194.002 133.354 193.444 131.48 193.444 129.402C193.444 126.869 194.103 124.842 195.42 123.373C196.738 121.904 198.866 120.84 201.804 120.181C204.743 119.522 208.746 119.218 213.711 119.218H217.207V124.285H213.762C210.874 124.285 208.543 124.437 206.82 124.69C205.098 124.994 203.831 125.45 203.122 126.109C202.412 126.768 202.007 127.73 202.007 128.946C202.007 130.517 202.564 131.784 203.628 132.746C204.692 133.709 206.212 134.216 208.138 134.216C209.708 134.216 211.076 133.861 212.242 133.101C213.458 132.392 214.37 131.378 215.079 130.112C215.788 128.845 216.143 127.376 216.143 125.754V117.648C216.143 115.317 215.636 113.594 214.572 112.581C213.559 111.568 211.786 111.01 209.354 111.01C207.986 111.01 206.516 111.162 204.946 111.517C203.375 111.821 201.703 112.429 199.98 113.189C199.068 113.594 198.308 113.746 197.599 113.544C196.94 113.341 196.383 112.986 196.028 112.378C195.674 111.77 195.471 111.162 195.471 110.453C195.471 109.744 195.674 109.034 196.028 108.376C196.383 107.717 197.042 107.21 197.903 106.856C200.082 105.944 202.159 105.336 204.135 104.981C206.111 104.626 207.935 104.424 209.607 104.424C213.002 104.424 215.738 104.93 217.967 105.994C220.146 107.008 221.767 108.578 222.831 110.656C223.895 112.733 224.452 115.418 224.452 118.712V135.584C224.452 137.053 224.098 138.168 223.388 138.928C222.679 139.688 221.666 140.093 220.348 140.093C219.031 140.093 218.018 139.688 217.308 138.928C216.599 138.168 216.194 137.053 216.194 135.584V132.189H216.751C216.447 133.81 215.788 135.229 214.826 136.445C213.863 137.661 212.647 138.573 211.178 139.232C209.86 139.941 208.188 140.296 206.314 140.296Z" fill="white"/>
<path d="M237.828 140.144C236.409 140.144 235.345 139.738 234.585 138.978C233.825 138.218 233.471 137.104 233.471 135.634V109.034C233.471 107.565 233.825 106.501 234.585 105.741C235.345 104.981 236.409 104.626 237.727 104.626C239.095 104.626 240.159 104.981 240.868 105.741C241.628 106.501 241.983 107.616 241.983 109.034V113.797L241.223 112.024C242.236 109.541 243.857 107.666 246.036 106.349C248.215 105.082 250.697 104.424 253.433 104.424C256.22 104.424 258.449 104.93 260.273 105.994C262.047 107.008 263.415 108.578 264.276 110.656C265.188 112.733 265.593 115.368 265.593 118.56V135.584C265.593 137.053 265.239 138.168 264.479 138.928C263.719 139.688 262.655 140.093 261.236 140.093C259.817 140.093 258.753 139.688 257.943 138.928C257.132 138.168 256.777 137.053 256.777 135.584V118.965C256.777 116.28 256.271 114.354 255.257 113.138C254.244 111.922 252.673 111.314 250.596 111.314C248.012 111.314 245.985 112.125 244.465 113.746C242.945 115.368 242.185 117.496 242.185 120.181V135.584C242.287 138.624 240.767 140.144 237.828 140.144Z" fill="white"/>
<path d="M290.521 140.295C286.924 140.295 283.783 139.535 281.097 138.066C278.412 136.597 276.385 134.469 274.916 131.783C273.447 129.047 272.737 125.855 272.737 122.207C272.737 119.421 273.143 116.989 273.953 114.81C274.764 112.632 275.98 110.757 277.5 109.237C279.071 107.717 280.945 106.552 283.124 105.741C285.303 104.93 287.785 104.525 290.521 104.525C292.092 104.525 293.764 104.728 295.537 105.133C297.361 105.538 299.033 106.248 300.655 107.261C301.415 107.717 301.921 108.274 302.124 108.933C302.377 109.592 302.428 110.25 302.276 110.96C302.124 111.618 301.82 112.226 301.415 112.733C300.959 113.24 300.401 113.544 299.743 113.645C299.084 113.746 298.375 113.594 297.564 113.189C296.551 112.581 295.487 112.125 294.423 111.821C293.359 111.517 292.295 111.365 291.332 111.365C289.761 111.365 288.444 111.618 287.228 112.125C286.063 112.632 285.049 113.341 284.239 114.253C283.428 115.165 282.82 116.33 282.364 117.648C281.959 119.016 281.756 120.586 281.756 122.359C281.756 125.855 282.567 128.541 284.239 130.567C285.911 132.543 288.241 133.557 291.332 133.557C292.295 133.557 293.359 133.405 294.372 133.151C295.436 132.847 296.5 132.442 297.564 131.834C298.375 131.429 299.084 131.277 299.692 131.429C300.3 131.581 300.857 131.885 301.263 132.391C301.668 132.898 301.921 133.455 302.023 134.165C302.124 134.823 302.023 135.533 301.769 136.191C301.516 136.85 301.009 137.407 300.351 137.813C298.78 138.775 297.159 139.434 295.436 139.839C293.713 140.093 292.092 140.295 290.521 140.295Z" fill="white"/>
<path d="M324.062 140.295C320.161 140.295 316.817 139.586 313.98 138.117C311.142 136.647 309.014 134.621 307.494 131.935C305.974 129.25 305.214 126.109 305.214 122.461C305.214 118.914 305.974 115.773 307.444 113.088C308.913 110.402 310.94 108.325 313.574 106.805C316.158 105.285 319.148 104.525 322.492 104.525C324.924 104.525 327.102 104.93 329.078 105.741C331.004 106.552 332.676 107.666 334.094 109.186C335.462 110.706 336.526 112.48 337.236 114.658C337.945 116.786 338.35 119.218 338.35 121.853C338.35 122.714 338.046 123.322 337.489 123.778C336.881 124.234 336.07 124.437 335.006 124.437H312.409V119.37H332.169L331.054 120.434C331.054 118.256 330.75 116.482 330.092 115.013C329.484 113.544 328.521 112.429 327.356 111.669C326.19 110.909 324.67 110.504 322.897 110.504C320.921 110.504 319.249 110.96 317.881 111.872C316.513 112.784 315.449 114.101 314.74 115.722C314.03 117.394 313.625 119.37 313.625 121.65V122.157C313.625 126.007 314.537 128.895 316.31 130.77C318.134 132.645 320.769 133.607 324.316 133.607C325.532 133.607 326.9 133.455 328.42 133.151C329.94 132.847 331.409 132.341 332.726 131.581C333.689 131.023 334.601 130.77 335.31 130.821C336.07 130.871 336.678 131.175 337.084 131.631C337.54 132.087 337.793 132.695 337.894 133.354C337.996 134.013 337.844 134.722 337.489 135.431C337.134 136.141 336.526 136.749 335.716 137.255C334.094 138.269 332.169 139.029 330.041 139.535C327.862 140.042 325.886 140.295 324.062 140.295Z" fill="white"/>
<path d="M191.772 30.7039C190.81 29.6399 189.644 28.7279 188.327 28.0186C187.212 27.4106 187.111 25.8399 188.175 25.0799C189.087 24.4212 189.898 23.6612 190.658 22.7999C192.532 20.4693 193.495 17.6826 193.495 14.3893C193.495 11.4 192.786 8.81596 191.316 6.68797C189.898 4.55998 187.77 2.88799 184.983 1.72266C182.196 0.557331 178.852 0 174.9 0H155.85C153.823 0 152.253 0.557331 151.138 1.67199C150.935 1.87466 150.783 2.02666 150.631 2.27999L146.629 7.34664C146.629 7.34664 145.615 8.56263 145.109 8.7653C144.501 9.0693 142.525 9.0693 142.525 9.0693H135.077C129.098 9.0693 124.386 10.4373 120.991 13.1733C117.597 15.9093 115.874 19.7599 115.874 24.6746C115.874 28.3732 116.938 31.4132 119.066 33.7439C120.738 35.5679 122.967 36.8852 125.703 37.7465H125.754C125.754 37.7465 125.805 37.7465 125.805 37.7972C125.754 37.7972 125.703 37.7972 125.703 37.7465C123.474 38.6078 121.65 39.9252 120.231 41.6478C118.357 43.9785 117.394 46.7651 117.394 50.0585C117.394 53.0478 118.103 55.6318 119.573 57.7598C120.991 59.8878 123.119 61.5598 125.906 62.7251C128.693 63.8904 132.037 64.4477 135.989 64.4477H147.794C149.314 64.4477 150.733 63.9411 151.898 63.0291L160.967 55.7838C161.271 55.5304 161.626 55.4291 162.031 55.4291H175.711C181.69 55.4291 186.402 54.0611 189.796 51.3251C193.191 48.5891 194.914 44.7385 194.914 39.8238C194.964 36.0745 193.9 33.0345 191.772 30.7039ZM129.909 19.9119C131.378 18.6959 133.658 18.0879 136.85 18.0879H147.135C148.706 18.0879 150.175 17.3279 151.138 16.1119L155.141 10.792C155.951 9.72796 157.167 9.11996 158.535 9.11996C160.106 9.11996 161.271 9.11996 161.271 9.11996H172.924C175.964 9.11996 178.194 9.67729 179.663 10.8426C181.132 12.008 181.842 13.6799 181.842 15.9599C181.842 18.2906 181.082 20.0133 179.663 21.1279C178.092 22.2426 175.812 22.7999 172.772 22.7999H162.893C161.829 22.7999 160.815 23.1546 160.005 23.8639L151.087 31.3625C150.125 32.1732 148.858 32.6292 147.591 32.6292H136.799C133.658 32.6292 131.327 32.0212 129.858 30.8052C128.389 29.5892 127.679 27.7652 127.679 25.3839C127.679 23.0026 128.439 21.1786 129.909 19.9119ZM181.031 44.5358C179.562 45.7518 177.282 46.3598 174.09 46.3598H161.981C161.474 46.3598 160.967 46.5118 160.562 46.8158L151.138 54.2131C150.125 54.9731 148.909 55.4291 147.642 55.4291H138.117C135.077 55.4291 132.847 54.8718 131.378 53.7065C129.909 52.5411 129.199 50.8691 129.199 48.5891C129.199 46.2585 129.959 44.5358 131.378 43.4212C132.847 42.2558 135.077 41.6985 138.117 41.6985H148.098C149.111 41.6985 150.074 41.3438 150.834 40.6852L159.65 33.1359C160.613 32.3252 161.879 31.8692 163.146 31.8692H174.039C177.18 31.8692 179.511 32.4772 180.98 33.6932C182.45 34.9092 183.159 36.7332 183.159 39.1145C183.26 41.4958 182.5 43.3198 181.031 44.5358Z" fill="white"/>
</g>
<defs>
<clipPath id="clip0_3249_815">
<rect width="338.3" height="140.295" fill="white"/>
</clipPath>
</defs>
</svg>
